<svg width="720" height="174" viewBox="0 0 720 174" fill="none" xmlns="http://www.w3.org/2000/svg">
<path d="M96 114H112C116.418 114 120 110.418 120 106V98C120 93.5817 123.582 90 128 90H142" stroke="#6F6F6F"/>
<path d="M96 66H112C116.418 66 120 69.5817 120 74V82C120 86.4183 123.582 90 128 90H142" stroke="#6F6F6F"/>
<path d="M112 18L112 18.5L112 18ZM120 26L120.5 26L120 26ZM120 82L119.5 82L120 82ZM128 90L128 90.5L128 90ZM144 90L139 87.1132L139 92.8867L144 90ZM95.9998 18.5L112 18.5L112 17.5L95.9998 17.5L95.9998 18.5ZM119.5 26L119.5 82L120.5 82L120.5 26L119.5 26ZM128 90.5L139.5 90.5L139.5 89.5L128 89.5L128 90.5ZM119.5 82C119.5 86.6944 123.306 90.5 128 90.5L128 89.5C123.858 89.5 120.5 86.1421 120.5 82L119.5 82ZM112 18.5C116.142 18.5 119.5 21.8578 119.5 26L120.5 26C120.5 21.3056 116.694 17.5 112 17.5L112 18.5Z" fill="#6F6F6F"/>
<path d="M629.261 55.144C627.005 55.144 625.553 53.704 625.553 50.872C625.553 48.04 627.005 46.48 629.261 46.48C630.797 46.48 631.781 47.104 632.393 48.448L630.821 49.264C630.605 48.568 630.161 48.1 629.261 48.1C628.193 48.1 627.485 48.82 627.485 50.14V51.484C627.485 52.804 628.193 53.524 629.261 53.524C630.161 53.524 630.677 52.96 630.929 52.276L632.417 53.14C631.793 54.412 630.797 55.144 629.261 55.144ZM639.238 55H638.254C637.618 55 637.162 54.568 637.054 53.896H636.982C636.79 54.712 636.094 55.144 635.134 55.144C633.874 55.144 633.178 54.4 633.178 53.308C633.178 51.976 634.21 51.34 635.878 51.34H636.874V50.944C636.874 50.332 636.574 49.948 635.83 49.948C635.122 49.948 634.75 50.308 634.474 50.692L633.418 49.756C633.922 49.012 634.642 48.556 635.962 48.556C637.738 48.556 638.65 49.372 638.65 50.86V53.62H639.238V55ZM635.794 53.908C636.382 53.908 636.874 53.668 636.874 53.092V52.348H636.01C635.326 52.348 634.966 52.6 634.966 53.056V53.236C634.966 53.692 635.266 53.908 635.794 53.908ZM642.206 55H640.43V48.7H642.206V50.068H642.266C642.41 49.372 642.89 48.7 643.874 48.7H644.186V50.356H643.742C642.71 50.356 642.206 50.584 642.206 51.316V55ZM645.281 55V46.12H647.057V49.756H647.117C647.297 49.06 647.993 48.556 648.809 48.556C650.405 48.556 651.233 49.708 651.233 51.844C651.233 53.98 650.405 55.144 648.809 55.144C647.993 55.144 647.297 54.628 647.117 53.944H647.057V55H645.281ZM648.221 53.704C648.893 53.704 649.385 53.188 649.385 52.396V51.304C649.385 50.512 648.893 49.996 648.221 49.996C647.549 49.996 647.057 50.344 647.057 50.92V52.78C647.057 53.356 647.549 53.704 648.221 53.704ZM655.138 55.144C653.29 55.144 652.186 53.872 652.186 51.844C652.186 49.816 653.29 48.556 655.138 48.556C656.986 48.556 658.09 49.816 658.09 51.844C658.09 53.872 656.986 55.144 655.138 55.144ZM655.138 53.74C655.834 53.74 656.242 53.284 656.242 52.492V51.208C656.242 50.416 655.834 49.96 655.138 49.96C654.442 49.96 654.034 50.416 654.034 51.208V52.492C654.034 53.284 654.442 53.74 655.138 53.74ZM661.131 55H659.355V48.7H661.131V49.768H661.203C661.431 49.108 661.959 48.556 662.955 48.556C664.239 48.556 664.923 49.468 664.923 51.052V55H663.147V51.196C663.147 50.392 662.919 49.996 662.271 49.996C661.695 49.996 661.131 50.296 661.131 50.92V55ZM671.884 55.144C669.988 55.144 668.944 53.86 668.944 51.844C668.944 49.828 669.988 48.556 671.884 48.556C673.156 48.556 674.032 49.168 674.404 50.2L672.964 50.824C672.856 50.344 672.508 49.96 671.884 49.96C671.164 49.96 670.792 50.476 670.792 51.268V52.444C670.792 53.236 671.164 53.74 671.884 53.74C672.592 53.74 672.88 53.308 673.06 52.804L674.44 53.404C674.02 54.604 673.12 55.144 671.884 55.144ZM681.179 55H680.195C679.559 55 679.103 54.568 678.995 53.896H678.923C678.731 54.712 678.035 55.144 677.075 55.144C675.815 55.144 675.119 54.4 675.119 53.308C675.119 51.976 676.151 51.34 677.819 51.34H678.815V50.944C678.815 50.332 678.515 49.948 677.771 49.948C677.063 49.948 676.691 50.308 676.415 50.692L675.359 49.756C675.863 49.012 676.583 48.556 677.903 48.556C679.679 48.556 680.591 49.372 680.591 50.86V53.62H681.179V55ZM677.735 53.908C678.323 53.908 678.815 53.668 678.815 53.092V52.348H677.951C677.267 52.348 676.907 52.6 676.907 53.056V53.236C676.907 53.692 677.207 53.908 677.735 53.908ZM682.371 57.4V48.7H684.147V49.756H684.207C684.387 49.06 685.083 48.556 685.899 48.556C687.495 48.556 688.323 49.708 688.323 51.844C688.323 53.98 687.495 55.144 685.899 55.144C685.083 55.144 684.387 54.628 684.207 53.944H684.147V57.4H682.371ZM685.311 53.704C685.983 53.704 686.475 53.188 686.475 52.396V51.304C686.475 50.512 685.983 49.996 685.311 49.996C684.639 49.996 684.147 50.344 684.147 50.92V52.78C684.147 53.356 684.639 53.704 685.311 53.704ZM692.865 55H691.809C690.585 55 689.937 54.364 689.937 53.164V50.08H689.049V48.7H689.493C689.973 48.7 690.117 48.46 690.117 48.028V46.996H691.713V48.7H692.961V50.08H691.713V53.62H692.865V55ZM697.915 55V53.944H697.855C697.639 54.58 697.123 55.144 696.091 55.144C694.807 55.144 694.123 54.244 694.123 52.66V48.7H695.899V52.504C695.899 53.272 696.151 53.704 696.799 53.704C697.351 53.704 697.915 53.392 697.915 52.792V48.7H699.691V55H697.915ZM703.12 55H701.344V48.7H703.12V50.068H703.18C703.324 49.372 703.804 48.7 704.788 48.7H705.1V50.356H704.656C703.624 50.356 703.12 50.584 703.12 51.316V55ZM708.765 55.144C706.833 55.144 705.741 53.86 705.741 51.844C705.741 49.852 706.797 48.556 708.693 48.556C710.781 48.556 711.621 50.068 711.621 51.772V52.3H707.577V52.396C707.577 53.224 708.021 53.752 708.969 53.752C709.713 53.752 710.121 53.404 710.517 52.996L711.405 54.1C710.841 54.748 709.917 55.144 708.765 55.144ZM708.729 49.864C708.021 49.864 707.577 50.38 707.577 51.16V51.256H709.785V51.148C709.785 50.38 709.437 49.864 708.729 49.864ZM664.788 71.132C664.068 71.132 663.732 70.724 663.732 70.172V69.932C663.732 69.38 664.068 68.972 664.788 68.972C665.508 68.972 665.844 69.38 665.844 69.932V70.172C665.844 70.724 665.508 71.132 664.788 71.132ZM668.503 71.132C667.783 71.132 667.447 70.724 667.447 70.172V69.932C667.447 69.38 667.783 68.972 668.503 68.972C669.223 68.972 669.559 69.38 669.559 69.932V70.172C669.559 70.724 669.223 71.132 668.503 71.132ZM672.217 71.132C671.497 71.132 671.161 70.724 671.161 70.172V69.932C671.161 69.38 671.497 68.972 672.217 68.972C672.937 68.972 673.273 69.38 673.273 69.932V70.172C673.273 70.724 672.937 71.132 672.217 71.132ZM664.788 87.132C664.068 87.132 663.732 86.724 663.732 86.172V85.932C663.732 85.38 664.068 84.972 664.788 84.972C665.508 84.972 665.844 85.38 665.844 85.932V86.172C665.844 86.724 665.508 87.132 664.788 87.132ZM668.503 87.132C667.783 87.132 667.447 86.724 667.447 86.172V85.932C667.447 85.38 667.783 84.972 668.503 84.972C669.223 84.972 669.559 85.38 669.559 85.932V86.172C669.559 86.724 669.223 87.132 668.503 87.132ZM672.217 87.132C671.497 87.132 671.161 86.724 671.161 86.172V85.932C671.161 85.38 671.497 84.972 672.217 84.972C672.937 84.972 673.273 85.38 673.273 85.932V86.172C673.273 86.724 672.937 87.132 672.217 87.132ZM664.788 103.132C664.068 103.132 663.732 102.724 663.732 102.172V101.932C663.732 101.38 664.068 100.972 664.788 100.972C665.508 100.972 665.844 101.38 665.844 101.932V102.172C665.844 102.724 665.508 103.132 664.788 103.132ZM668.503 103.132C667.783 103.132 667.447 102.724 667.447 102.172V101.932C667.447 101.38 667.783 100.972 668.503 100.972C669.223 100.972 669.559 101.38 669.559 101.932V102.172C669.559 102.724 669.223 103.132 668.503 103.132ZM672.217 103.132C671.497 103.132 671.161 102.724 671.161 102.172V101.932C671.161 101.38 671.497 100.972 672.217 100.972C672.937 100.972 673.273 101.38 673.273 101.932V102.172C673.273 102.724 672.937 103.132 672.217 103.132ZM664.788 119.132C664.068 119.132 663.732 118.724 663.732 118.172V117.932C663.732 117.38 664.068 116.972 664.788 116.972C665.508 116.972 665.844 117.38 665.844 117.932V118.172C665.844 118.724 665.508 119.132 664.788 119.132ZM668.503 119.132C667.783 119.132 667.447 118.724 667.447 118.172V117.932C667.447 117.38 667.783 116.972 668.503 116.972C669.223 116.972 669.559 117.38 669.559 117.932V118.172C669.559 118.724 669.223 119.132 668.503 119.132ZM672.217 119.132C671.497 119.132 671.161 118.724 671.161 118.172V117.932C671.161 117.38 671.497 116.972 672.217 116.972C672.937 116.972 673.273 117.38 673.273 117.932V118.172C673.273 118.724 672.937 119.132 672.217 119.132Z" fill="#1E1E1E"/>
<path d="M514.301 16L515.696 9.085H515.606L514.166 11.095L511.841 14.275L510.731 10.87L510.146 9.055H510.071L508.676 16H506.606L508.706 5.53H510.986L512.501 10.51H512.561L516.056 5.53H518.471L516.371 16H514.301ZM519.998 8.125H522.098L521.168 12.805C521.108 13.09 521.063 13.375 521.063 13.6C521.063 14.11 521.288 14.425 521.798 14.425C522.308 14.425 522.713 14.125 523.058 13.705C523.403 13.285 523.658 12.775 523.778 12.175L524.588 8.125H526.688L525.443 14.32H526.328L525.998 16H524.603C523.853 16 523.283 15.58 523.283 14.845C523.283 14.68 523.313 14.47 523.328 14.395L523.373 14.17H523.283C522.698 15.4 521.948 16.18 520.748 16.18C519.563 16.18 518.888 15.43 518.888 14.14C518.888 13.75 518.948 13.405 519.023 13L519.998 8.125ZM530.259 16H528.849C528.039 16 527.499 15.52 527.499 14.8C527.499 14.68 527.514 14.575 527.544 14.425L529.449 4.9H531.549L529.659 14.32H530.589L530.259 16ZM535.287 16H533.967C532.752 16 532.122 15.505 532.122 14.515C532.122 14.365 532.137 14.095 532.182 13.87L532.992 9.805H531.882L532.212 8.125H532.752C533.397 8.125 533.532 7.87 533.637 7.33L533.907 5.995H535.857L535.437 8.125H537.012L536.667 9.805H535.092L534.192 14.32H535.617L535.287 16ZM539.57 7.255C538.835 7.255 538.49 6.955 538.49 6.475C538.49 6.295 538.535 6.055 538.58 5.875C538.715 5.35 539.015 4.795 540.02 4.795C540.755 4.795 541.1 5.095 541.1 5.575C541.1 5.755 541.055 5.995 541.01 6.175C540.875 6.7 540.575 7.255 539.57 7.255ZM539.735 16H538.37C537.56 16 537.02 15.52 537.02 14.8C537.02 14.68 537.035 14.575 537.065 14.425L538.325 8.125H540.425L539.18 14.32H540.065L539.735 16ZM545.712 12.43H541.287L541.692 10.42H546.117L545.712 12.43ZM550.434 16H549.114C547.899 16 547.269 15.505 547.269 14.515C547.269 14.365 547.284 14.095 547.329 13.87L548.139 9.805H547.029L547.359 8.125H547.899C548.544 8.125 548.679 7.87 548.784 7.33L549.054 5.995H551.004L550.584 8.125H552.159L551.814 9.805H550.239L549.339 14.32H550.764L550.434 16ZM559.458 16H558.063C557.313 16 556.743 15.58 556.743 14.845C556.743 14.68 556.773 14.47 556.788 14.395L556.833 14.17H556.743C556.128 15.445 555.408 16.18 554.178 16.18C552.708 16.18 552.078 15.025 552.078 13.45C552.078 10.105 553.728 7.945 555.738 7.945C556.833 7.945 557.598 8.635 557.703 9.49H557.778L558.048 8.125H560.148L558.903 14.32H559.788L559.458 16ZM555.213 14.455C555.753 14.455 556.203 14.125 556.518 13.735C556.848 13.33 557.118 12.76 557.238 12.175L557.478 10.975C557.628 10.24 557.118 9.67 556.248 9.67C555.318 9.67 554.763 10.24 554.523 11.425L554.313 12.475C554.268 12.685 554.223 13.09 554.223 13.33C554.223 14.035 554.598 14.455 555.213 14.455ZM563.671 16.18C562.351 16.18 561.196 15.715 560.506 14.8L561.826 13.57C562.261 14.155 562.831 14.5 563.716 14.5C564.691 14.5 565.066 14.08 565.066 13.63C565.066 13.33 564.886 13.06 564.331 12.985L563.536 12.88C562.186 12.7 561.436 12.025 561.436 10.765C561.436 9.28 562.486 7.945 564.706 7.945C565.921 7.945 566.941 8.35 567.631 9.19L566.311 10.42C565.936 9.94 565.306 9.625 564.616 9.625C563.911 9.625 563.476 9.97 563.476 10.45C563.476 10.75 563.656 11.02 564.211 11.095L565.006 11.2C566.356 11.38 567.106 12.07 567.106 13.3C567.106 14.83 565.921 16.18 563.671 16.18ZM568.142 16L570.362 4.9H572.462L571.157 11.425H571.262L572.342 10.075L574.232 8.125H576.677L573.482 11.32L574.562 14.32H575.477L575.117 16H573.992C573.257 16 572.762 15.61 572.507 14.815L571.847 12.76L570.662 13.87L570.242 16H568.142ZM492.042 36H490.977C490.152 36 489.702 35.475 489.702 34.755V24.9H490.902V34.95H492.042V36ZM496.699 36.18C494.599 36.18 493.219 34.59 493.219 32.13C493.219 29.67 494.599 28.08 496.699 28.08C498.769 28.08 500.044 29.67 500.044 31.86V32.43H494.479V32.79C494.479 34.125 495.334 35.13 496.774 35.13C497.749 35.13 498.499 34.65 498.904 33.795L499.759 34.41C499.264 35.46 498.154 36.18 496.699 36.18ZM496.699 29.085C495.394 29.085 494.479 30.075 494.479 31.425V31.53H498.754V31.365C498.754 30 497.929 29.085 496.699 29.085ZM508.322 36H507.647C506.762 36 506.402 35.46 506.312 34.74H506.237C505.907 35.685 505.082 36.18 504.002 36.18C502.367 36.18 501.407 35.28 501.407 33.84C501.407 32.385 502.457 31.575 504.707 31.575H506.237V30.81C506.237 29.715 505.637 29.115 504.407 29.115C503.477 29.115 502.862 29.565 502.442 30.27L501.722 29.595C502.142 28.77 503.072 28.08 504.467 28.08C506.327 28.08 507.437 29.055 507.437 30.69V34.95H508.322V36ZM504.197 35.16C505.382 35.16 506.237 34.545 506.237 33.75V32.475H504.647C503.282 32.475 502.667 32.895 502.667 33.645V33.96C502.667 34.725 503.267 35.16 504.197 35.16ZM511.234 36H510.034V28.26H511.234V29.685H511.309C511.579 28.95 512.284 28.26 513.544 28.26H514.009V29.46H513.304C512.014 29.46 511.234 30.015 511.234 30.75V36ZM516.742 36H515.542V28.26H516.742V29.52H516.802C517.177 28.65 517.837 28.08 518.992 28.08C520.582 28.08 521.587 29.16 521.587 31.035V36H520.387V31.245C520.387 29.865 519.787 29.16 518.632 29.16C517.672 29.16 516.742 29.64 516.742 30.63V36ZM524.667 26.445C524.157 26.445 523.932 26.175 523.932 25.77V25.575C523.932 25.17 524.157 24.9 524.667 24.9C525.177 24.9 525.402 25.17 525.402 25.575V25.77C525.402 26.175 525.177 26.445 524.667 26.445ZM524.067 36V28.26H525.267V36H524.067ZM529.017 36H527.817V28.26H529.017V29.52H529.077C529.452 28.65 530.112 28.08 531.267 28.08C532.857 28.08 533.862 29.16 533.862 31.035V36H532.662V31.245C532.662 29.865 532.062 29.16 530.907 29.16C529.947 29.16 529.017 29.64 529.017 30.63V36ZM542.868 36.855C542.868 38.445 541.608 39.18 539.118 39.18C536.703 39.18 535.713 38.49 535.713 37.275C535.713 36.435 536.178 35.985 536.943 35.775V35.61C536.508 35.4 536.253 35.055 536.253 34.53C536.253 33.75 536.808 33.375 537.588 33.18V33.12C536.673 32.685 536.133 31.83 536.133 30.75C536.133 29.175 537.288 28.08 539.043 28.08C539.598 28.08 540.093 28.185 540.513 28.38V28.245C540.513 27.645 540.768 27.21 541.413 27.21H542.568V28.26H541.098V28.755C541.653 29.235 541.983 29.925 541.983 30.75C541.983 32.325 540.828 33.42 539.058 33.42C538.803 33.42 538.533 33.39 538.308 33.345C537.798 33.48 537.288 33.735 537.288 34.215C537.288 34.68 537.768 34.8 538.473 34.8H540.123C542.043 34.8 542.868 35.58 542.868 36.855ZM541.743 36.945C541.743 36.33 541.338 35.925 540.138 35.925H537.558C537.063 36.15 536.838 36.495 536.838 36.975C536.838 37.65 537.303 38.205 538.518 38.205H539.628C540.963 38.205 541.743 37.785 541.743 36.945ZM539.058 32.46C540.078 32.46 540.723 31.98 540.723 30.96V30.54C540.723 29.52 540.078 29.04 539.058 29.04C538.038 29.04 537.393 29.52 537.393 30.54V30.96C537.393 31.98 538.038 32.46 539.058 32.46ZM549.013 36H547.813V28.26H549.013V29.52H549.073C549.418 28.725 549.958 28.08 551.158 28.08C552.178 28.08 553.108 28.545 553.528 29.655H553.558C553.843 28.815 554.593 28.08 555.913 28.08C557.488 28.08 558.433 29.16 558.433 31.035V36H557.233V31.245C557.233 29.88 556.708 29.16 555.538 29.16C554.593 29.16 553.723 29.64 553.723 30.63V36H552.523V31.245C552.523 29.865 551.998 29.16 550.858 29.16C549.913 29.16 549.013 29.64 549.013 30.63V36ZM563.833 36.18C561.763 36.18 560.338 34.59 560.338 32.13C560.338 29.67 561.763 28.08 563.833 28.08C565.903 28.08 567.328 29.67 567.328 32.13C567.328 34.59 565.903 36.18 563.833 36.18ZM563.833 35.115C565.123 35.115 566.038 34.32 566.038 32.685V31.575C566.038 29.94 565.123 29.145 563.833 29.145C562.543 29.145 561.628 29.94 561.628 31.575V32.685C561.628 34.32 562.543 35.115 563.833 35.115ZM574.252 36V34.74H574.192C573.727 35.7 572.992 36.18 571.927 36.18C569.992 36.18 568.777 34.605 568.777 32.13C568.777 29.655 569.992 28.08 571.927 28.08C572.992 28.08 573.787 28.545 574.192 29.52H574.252V24.9H575.452V36H574.252ZM572.257 35.1C573.352 35.1 574.252 34.53 574.252 33.525V30.645C574.252 29.79 573.352 29.16 572.257 29.16C570.907 29.16 570.067 30.09 570.067 31.47V32.79C570.067 34.17 570.907 35.1 572.257 35.1ZM582.773 36V34.74H582.713C582.413 35.475 581.828 36.18 580.538 36.18C578.948 36.18 577.928 35.1 577.928 33.225V28.26H579.128V33.015C579.128 34.395 579.743 35.1 580.898 35.1C581.843 35.1 582.773 34.635 582.773 33.615V28.26H583.973V36H582.773ZM588.868 36H587.803C586.978 36 586.528 35.475 586.528 34.755V24.9H587.728V34.95H588.868V36ZM593.525 36.18C591.425 36.18 590.045 34.59 590.045 32.13C590.045 29.67 591.425 28.08 593.525 28.08C595.595 28.08 596.87 29.67 596.87 31.86V32.43H591.305V32.79C591.305 34.125 592.16 35.13 593.6 35.13C594.575 35.13 595.325 34.65 595.73 33.795L596.585 34.41C596.09 35.46 594.98 36.18 593.525 36.18ZM593.525 29.085C592.22 29.085 591.305 30.075 591.305 31.425V31.53H595.58V31.365C595.58 30 594.755 29.085 593.525 29.085Z" fill="#1E1E1E"/>
<path d="M528 90L523 87.1132V92.8868L528 90ZM504 90.5H523.5V89.5H504V90.5Z" fill="#1465FE"/>
<path d="M528 83L523 80.1132V85.8868L528 83ZM509 83.5H523.5V82.5H509V83.5Z" fill="#1465FE"/>
<path d="M528 76L523 73.1132L523 78.8868L528 76ZM512 76.5L523.5 76.5L523.5 75.5L512 75.5L512 76.5Z" fill="#1465FE"/>
<path d="M600.678 55.6354V125.227L528.5 107.753V73.1089L600.678 55.6354Z" fill="#ECF5FF" stroke="#1465FE"/>
<path d="M531.098 69.5L603.902 52V121.5" stroke="#1465FE"/>
<path d="M534.196 65.5L607 48V117.5" stroke="#1465FE"/>
<rect x="480.5" y="58.5055" width="25.5073" height="62.9944" fill="#ECF5FF" stroke="#1465FE"/>
<path d="M482.933 55.6725H508.888V118.334" stroke="#1465FE"/>
<path d="M485.59 52.6729H511.545V115.334" stroke="#1465FE"/>
<path d="M623 90L618 87.1132V92.8868L623 90ZM599 90.5H618.5V89.5H599V90.5Z" fill="#1465FE"/>
<path d="M623 83L618 80.1132V85.8868L623 83ZM604 83.5H618.5V82.5H604V83.5Z" fill="#1465FE"/>
<path d="M623 76L618 73.1132L618 78.8868L623 76ZM607 76.5L618.5 76.5L618.5 75.5L607 75.5L607 76.5Z" fill="#1465FE"/>
<path d="M498 107.609V108.665L495.528 109.505V112.889L498 113.729V114.749L489.624 111.821V110.537L498 107.609ZM494.64 109.757L490.56 111.173V111.233L494.64 112.649V109.757ZM498 103.797V104.997C498 105.657 497.58 106.017 496.98 106.017H492.648V107.037H491.808V106.461C491.808 106.053 491.664 105.921 491.244 105.921H490.092V105.057H491.808V103.701H492.648V105.057H497.16V103.797H498ZM498 99.6952V100.895C498 101.555 497.58 101.915 496.98 101.915H492.648V102.935H491.808V102.359C491.808 101.951 491.664 101.819 491.244 101.819H490.092V100.955H491.808V99.5992H492.648V100.955H497.16V99.6952H498ZM498.144 95.775C498.144 97.455 496.872 98.559 494.904 98.559C492.936 98.559 491.664 97.455 491.664 95.775C491.664 94.119 492.936 93.099 494.688 93.099H495.144V97.551H495.432C496.5 97.551 497.304 96.867 497.304 95.715C497.304 94.935 496.92 94.335 496.236 94.011L496.728 93.327C497.568 93.723 498.144 94.611 498.144 95.775ZM492.468 95.775C492.468 96.819 493.26 97.551 494.34 97.551H494.424V94.131H494.292C493.2 94.131 492.468 94.791 492.468 95.775ZM498 90.5571V91.5171H491.808V90.5571H492.816V90.5091C492.12 90.2091 491.664 89.6811 491.664 88.7571C491.664 87.4851 492.528 86.6811 494.028 86.6811H498V87.6411H494.196C493.092 87.6411 492.528 88.1211 492.528 89.0451C492.528 89.8131 492.912 90.5571 493.704 90.5571H498ZM498 82.1288V83.3288C498 83.9888 497.58 84.3488 496.98 84.3488H492.648V85.3688H491.808V84.7928C491.808 84.3848 491.664 84.2528 491.244 84.2528H490.092V83.3888H491.808V82.0328H492.648V83.3888H497.16V82.1288H498ZM490.356 80.0098C490.356 80.4178 490.14 80.5978 489.816 80.5978H489.66C489.336 80.5978 489.12 80.4178 489.12 80.0098C489.12 79.6018 489.336 79.4218 489.66 79.4218H489.816C490.14 79.4218 490.356 79.6018 490.356 80.0098ZM498 80.4898H491.808V79.5298H498V80.4898ZM498.144 75.1498C498.144 76.8058 496.872 77.9458 494.904 77.9458C492.936 77.9458 491.664 76.8058 491.664 75.1498C491.664 73.4938 492.936 72.3538 494.904 72.3538C496.872 72.3538 498.144 73.4938 498.144 75.1498ZM497.292 75.1498C497.292 74.1178 496.656 73.3858 495.348 73.3858H494.46C493.152 73.3858 492.516 74.1178 492.516 75.1498C492.516 76.1818 493.152 76.9138 494.46 76.9138H495.348C496.656 76.9138 497.292 76.1818 497.292 75.1498ZM498 69.8149V70.7749H491.808V69.8149H492.816V69.7669C492.12 69.4669 491.664 68.9389 491.664 68.0149C491.664 66.7429 492.528 65.9389 494.028 65.9389H498V66.8989H494.196C493.092 66.8989 492.528 67.3789 492.528 68.3029C492.528 69.0709 492.912 69.8149 493.704 69.8149H498Z" fill="#1465FE"/>
<path d="M540.565 85.512H537.901V93H536.893V85.512H534.229V84.624H540.565V85.512ZM546.048 93H545.508C544.8 93 544.512 92.568 544.44 91.992H544.38C544.116 92.748 543.456 93.144 542.592 93.144C541.284 93.144 540.516 92.424 540.516 91.272C540.516 90.108 541.356 89.46 543.156 89.46H544.38V88.848C544.38 87.972 543.9 87.492 542.916 87.492C542.172 87.492 541.68 87.852 541.344 88.416L540.768 87.876C541.104 87.216 541.848 86.664 542.964 86.664C544.452 86.664 545.34 87.444 545.34 88.752V92.16H546.048V93ZM542.748 92.328C543.696 92.328 544.38 91.836 544.38 91.2V90.18H543.108C542.016 90.18 541.524 90.516 541.524 91.116V91.368C541.524 91.98 542.004 92.328 542.748 92.328ZM549.278 93.144C548.138 93.144 547.382 92.664 546.83 91.932L547.514 91.38C547.994 91.98 548.57 92.328 549.35 92.328C550.166 92.328 550.646 91.956 550.646 91.32C550.646 90.84 550.382 90.468 549.566 90.348L549.074 90.276C547.934 90.108 547.082 89.64 547.082 88.488C547.082 87.264 548.03 86.664 549.29 86.664C550.286 86.664 550.946 87.036 551.45 87.66L550.814 88.236C550.538 87.852 550.01 87.48 549.218 87.48C548.426 87.48 548.006 87.852 548.006 88.44C548.006 89.04 548.426 89.28 549.194 89.4L549.674 89.472C551.042 89.676 551.57 90.276 551.57 91.212C551.57 92.412 550.694 93.144 549.278 93.144ZM553.266 93V84.12H554.226V89.748H554.274L555.222 88.692L556.974 86.808H558.138L555.846 89.256L558.366 93H557.202L555.15 89.844L554.226 90.792V93H553.266ZM562.43 93V84.12H563.39V87.816H563.438C563.738 87.12 564.266 86.664 565.19 86.664C566.462 86.664 567.266 87.528 567.266 89.028V93H566.306V89.196C566.306 88.092 565.826 87.528 564.902 87.528C564.134 87.528 563.39 87.912 563.39 88.704V93H562.43ZM571.578 93.144C569.898 93.144 568.794 91.872 568.794 89.904C568.794 87.936 569.898 86.664 571.578 86.664C573.234 86.664 574.254 87.936 574.254 89.688V90.144H569.802V90.432C569.802 91.5 570.486 92.304 571.638 92.304C572.418 92.304 573.018 91.92 573.342 91.236L574.026 91.728C573.63 92.568 572.742 93.144 571.578 93.144ZM571.578 87.468C570.534 87.468 569.802 88.26 569.802 89.34V89.424H573.222V89.292C573.222 88.2 572.562 87.468 571.578 87.468ZM580.876 93H580.336C579.628 93 579.34 92.568 579.268 91.992H579.208C578.944 92.748 578.284 93.144 577.42 93.144C576.112 93.144 575.344 92.424 575.344 91.272C575.344 90.108 576.184 89.46 577.984 89.46H579.208V88.848C579.208 87.972 578.728 87.492 577.744 87.492C577 87.492 576.508 87.852 576.172 88.416L575.596 87.876C575.932 87.216 576.676 86.664 577.792 86.664C579.28 86.664 580.168 87.444 580.168 88.752V92.16H580.876V93ZM577.576 92.328C578.524 92.328 579.208 91.836 579.208 91.2V90.18H577.936C576.844 90.18 576.352 90.516 576.352 91.116V91.368C576.352 91.98 576.832 92.328 577.576 92.328ZM586.207 93V91.992H586.159C585.787 92.76 585.199 93.144 584.347 93.144C582.799 93.144 581.827 91.884 581.827 89.904C581.827 87.924 582.799 86.664 584.347 86.664C585.199 86.664 585.835 87.036 586.159 87.816H586.207V84.12H587.167V93H586.207ZM584.611 92.28C585.487 92.28 586.207 91.824 586.207 91.02V88.716C586.207 88.032 585.487 87.528 584.611 87.528C583.531 87.528 582.859 88.272 582.859 89.376V90.432C582.859 91.536 583.531 92.28 584.611 92.28ZM591.068 93.144C589.928 93.144 589.172 92.664 588.62 91.932L589.304 91.38C589.784 91.98 590.36 92.328 591.14 92.328C591.956 92.328 592.436 91.956 592.436 91.32C592.436 90.84 592.172 90.468 591.355 90.348L590.864 90.276C589.724 90.108 588.872 89.64 588.872 88.488C588.872 87.264 589.82 86.664 591.08 86.664C592.076 86.664 592.736 87.036 593.24 87.66L592.604 88.236C592.328 87.852 591.8 87.48 591.008 87.48C590.216 87.48 589.796 87.852 589.796 88.44C589.796 89.04 590.216 89.28 590.984 89.4L591.464 89.472C592.832 89.676 593.36 90.276 593.36 91.212C593.36 92.412 592.484 93.144 591.068 93.144Z" fill="#1465FE"/>
<path d="M387.206 16H381.191L383.291 5.53H385.466L383.756 14.08H387.596L387.206 16ZM396.06 16H394.665C393.915 16 393.345 15.58 393.345 14.845C393.345 14.68 393.375 14.47 393.39 14.395L393.435 14.17H393.345C392.73 15.445 392.01 16.18 390.78 16.18C389.31 16.18 388.68 15.025 388.68 13.45C388.68 10.105 390.33 7.945 392.34 7.945C393.435 7.945 394.2 8.635 394.305 9.49H394.38L394.65 8.125H396.75L395.505 14.32H396.39L396.06 16ZM391.815 14.455C392.355 14.455 392.805 14.125 393.12 13.735C393.45 13.33 393.72 12.76 393.84 12.175L394.08 10.975C394.23 10.24 393.72 9.67 392.85 9.67C391.92 9.67 391.365 10.24 391.125 11.425L390.915 12.475C390.87 12.685 390.825 13.09 390.825 13.33C390.825 14.035 391.2 14.455 391.815 14.455ZM399.387 16H397.287L398.862 8.125H400.962L400.572 10.09H400.677C401.007 9.235 401.817 8.125 403.032 8.125H403.407L402.987 10.165H402.462C401.127 10.165 400.467 10.585 400.212 11.86L399.387 16ZM410.289 16.33C410.289 17.68 409.359 19.18 405.729 19.18C403.104 19.18 402.384 18.4 402.384 17.44C402.384 16.465 403.134 16.03 404.109 15.805V15.7C403.539 15.58 403.224 15.13 403.224 14.56C403.224 13.675 404.064 13.15 404.949 12.97L404.964 12.865C404.229 12.49 403.824 11.815 403.824 10.9C403.824 9.445 404.919 7.945 407.499 7.945C408.009 7.945 408.459 8.02 408.849 8.14L408.924 7.795C409.089 6.985 409.524 6.625 410.244 6.625H411.429L411.099 8.245H409.494L409.449 8.44C410.064 8.83 410.409 9.46 410.409 10.285C410.409 11.74 409.314 13.24 406.734 13.24C406.284 13.24 405.879 13.195 405.519 13.09C405.189 13.225 404.949 13.51 404.949 13.825C404.949 14.155 405.189 14.32 405.744 14.32H407.679C409.419 14.32 410.289 15.01 410.289 16.33ZM408.189 16.78C408.189 16.36 407.934 16.135 407.124 16.135H404.529C404.229 16.36 404.124 16.705 404.124 16.96C404.124 17.44 404.484 17.74 405.474 17.74H406.449C407.769 17.74 408.189 17.305 408.189 16.78ZM406.914 11.8C407.739 11.8 408.204 11.41 408.339 10.72C408.399 10.42 408.399 10.3 408.399 10.225C408.399 9.685 408.054 9.385 407.304 9.385C406.479 9.385 406.014 9.775 405.879 10.465C405.819 10.765 405.819 10.885 405.819 10.96C405.819 11.5 406.164 11.8 406.914 11.8ZM414.583 16.18C412.348 16.18 411.253 14.875 411.253 12.79C411.253 10.27 412.918 7.945 415.528 7.945C416.713 7.945 418.348 8.425 418.348 10.135C418.348 11.755 416.893 12.775 413.368 12.88C413.338 13.06 413.338 13.15 413.338 13.225C413.338 13.975 413.698 14.485 414.733 14.485C415.423 14.485 415.948 14.275 416.653 13.39L417.943 14.41C416.968 15.7 415.933 16.18 414.583 16.18ZM415.408 9.55C414.523 9.55 413.833 10.18 413.653 11.2L413.593 11.545C415.843 11.41 416.308 10.975 416.308 10.345C416.308 9.67 415.783 9.55 415.408 9.55ZM423.754 12.43H419.329L419.734 10.42H424.159L423.754 12.43ZM427.767 16.18C426.447 16.18 425.292 15.715 424.602 14.8L425.922 13.57C426.357 14.155 426.927 14.5 427.812 14.5C428.787 14.5 429.162 14.08 429.162 13.63C429.162 13.33 428.982 13.06 428.427 12.985L427.632 12.88C426.282 12.7 425.532 12.025 425.532 10.765C425.532 9.28 426.582 7.945 428.802 7.945C430.017 7.945 431.037 8.35 431.727 9.19L430.407 10.42C430.032 9.94 429.402 9.625 428.712 9.625C428.007 9.625 427.572 9.97 427.572 10.45C427.572 10.75 427.752 11.02 428.307 11.095L429.102 11.2C430.452 11.38 431.202 12.07 431.202 13.3C431.202 14.83 430.017 16.18 427.767 16.18ZM435.583 16.18C433.873 16.18 432.493 15.22 432.493 12.775C432.493 9.97 434.293 7.945 436.678 7.945C438.178 7.945 439.303 8.755 439.498 9.985L437.728 10.66C437.548 10.045 437.323 9.64 436.558 9.64C435.673 9.64 435.148 10.18 434.923 11.29L434.653 12.625C434.608 12.835 434.578 13.045 434.578 13.255C434.578 13.99 434.938 14.485 435.763 14.485C436.573 14.485 436.888 13.99 437.323 13.24L438.928 13.99C438.238 15.445 437.083 16.18 435.583 16.18ZM447.183 16H445.788C445.038 16 444.468 15.58 444.468 14.845C444.468 14.68 444.498 14.47 444.513 14.395L444.558 14.17H444.468C443.853 15.445 443.133 16.18 441.903 16.18C440.433 16.18 439.803 15.025 439.803 13.45C439.803 10.105 441.453 7.945 443.463 7.945C444.558 7.945 445.323 8.635 445.428 9.49H445.503L445.773 8.125H447.873L446.628 14.32H447.513L447.183 16ZM442.938 14.455C443.478 14.455 443.928 14.125 444.243 13.735C444.573 13.33 444.843 12.76 444.963 12.175L445.203 10.975C445.353 10.24 444.843 9.67 443.973 9.67C443.043 9.67 442.488 10.24 442.248 11.425L442.038 12.475C441.993 12.685 441.948 13.09 441.948 13.33C441.948 14.035 442.323 14.455 442.938 14.455ZM451.44 16H450.03C449.22 16 448.68 15.52 448.68 14.8C448.68 14.68 448.695 14.575 448.725 14.425L450.63 4.9H452.73L450.84 14.32H451.77L451.44 16ZM456.214 16.18C453.979 16.18 452.884 14.875 452.884 12.79C452.884 10.27 454.549 7.945 457.159 7.945C458.344 7.945 459.979 8.425 459.979 10.135C459.979 11.755 458.524 12.775 454.999 12.88C454.969 13.06 454.969 13.15 454.969 13.225C454.969 13.975 455.329 14.485 456.364 14.485C457.054 14.485 457.579 14.275 458.284 13.39L459.574 14.41C458.599 15.7 457.564 16.18 456.214 16.18ZM457.039 9.55C456.154 9.55 455.464 10.18 455.284 11.2L455.224 11.545C457.474 11.41 457.939 10.975 457.939 10.345C457.939 9.67 457.414 9.55 457.039 9.55ZM382.828 36H381.763C380.938 36 380.488 35.475 380.488 34.755V24.9H381.688V34.95H382.828V36ZM390.875 36H390.2C389.315 36 388.955 35.46 388.865 34.74H388.79C388.46 35.685 387.635 36.18 386.555 36.18C384.92 36.18 383.96 35.28 383.96 33.84C383.96 32.385 385.01 31.575 387.26 31.575H388.79V30.81C388.79 29.715 388.19 29.115 386.96 29.115C386.03 29.115 385.415 29.565 384.995 30.27L384.275 29.595C384.695 28.77 385.625 28.08 387.02 28.08C388.88 28.08 389.99 29.055 389.99 30.69V34.95H390.875V36ZM386.75 35.16C387.935 35.16 388.79 34.545 388.79 33.75V32.475H387.2C385.835 32.475 385.22 32.895 385.22 33.645V33.96C385.22 34.725 385.82 35.16 386.75 35.16ZM395.798 36H394.298C393.473 36 393.023 35.475 393.023 34.725V29.31H391.748V28.26H392.468C392.978 28.26 393.143 28.08 393.143 27.555V26.115H394.223V28.26H395.918V29.31H394.223V34.95H395.798V36ZM400.698 36.18C398.598 36.18 397.218 34.59 397.218 32.13C397.218 29.67 398.598 28.08 400.698 28.08C402.768 28.08 404.043 29.67 404.043 31.86V32.43H398.478V32.79C398.478 34.125 399.333 35.13 400.773 35.13C401.748 35.13 402.498 34.65 402.903 33.795L403.758 34.41C403.263 35.46 402.153 36.18 400.698 36.18ZM400.698 29.085C399.393 29.085 398.478 30.075 398.478 31.425V31.53H402.753V31.365C402.753 30 401.928 29.085 400.698 29.085ZM407.221 36H406.021V28.26H407.221V29.52H407.281C407.656 28.65 408.316 28.08 409.471 28.08C411.061 28.08 412.066 29.16 412.066 31.035V36H410.866V31.245C410.866 29.865 410.266 29.16 409.111 29.16C408.151 29.16 407.221 29.64 407.221 30.63V36ZM417.756 36H416.256C415.431 36 414.981 35.475 414.981 34.725V29.31H413.706V28.26H414.426C414.936 28.26 415.101 28.08 415.101 27.555V26.115H416.181V28.26H417.876V29.31H416.181V34.95H417.756V36ZM425.675 36.18C424.25 36.18 423.305 35.58 422.615 34.665L423.47 33.975C424.07 34.725 424.79 35.16 425.765 35.16C426.785 35.16 427.385 34.695 427.385 33.9C427.385 33.3 427.055 32.835 426.035 32.685L425.42 32.595C423.995 32.385 422.93 31.8 422.93 30.36C422.93 28.83 424.115 28.08 425.69 28.08C426.935 28.08 427.76 28.545 428.39 29.325L427.595 30.045C427.25 29.565 426.59 29.1 425.6 29.1C424.61 29.1 424.085 29.565 424.085 30.3C424.085 31.05 424.61 31.35 425.57 31.5L426.17 31.59C427.88 31.845 428.54 32.595 428.54 33.765C428.54 35.265 427.445 36.18 425.675 36.18ZM430.659 39V28.26H431.859V29.52H431.919C432.324 28.545 433.119 28.08 434.184 28.08C436.119 28.08 437.334 29.655 437.334 32.13C437.334 34.605 436.119 36.18 434.184 36.18C433.119 36.18 432.384 35.7 431.919 34.74H431.859V39H430.659ZM433.854 35.1C435.204 35.1 436.044 34.17 436.044 32.79V31.47C436.044 30.09 435.204 29.16 433.854 29.16C432.759 29.16 431.859 29.79 431.859 30.645V33.525C431.859 34.53 432.759 35.1 433.854 35.1ZM445.66 36H444.985C444.1 36 443.74 35.46 443.65 34.74H443.575C443.245 35.685 442.42 36.18 441.34 36.18C439.705 36.18 438.745 35.28 438.745 33.84C438.745 32.385 439.795 31.575 442.045 31.575H443.575V30.81C443.575 29.715 442.975 29.115 441.745 29.115C440.815 29.115 440.2 29.565 439.78 30.27L439.06 29.595C439.48 28.77 440.41 28.08 441.805 28.08C443.665 28.08 444.775 29.055 444.775 30.69V34.95H445.66V36ZM441.535 35.16C442.72 35.16 443.575 34.545 443.575 33.75V32.475H441.985C440.62 32.475 440.005 32.895 440.005 33.645V33.96C440.005 34.725 440.605 35.16 441.535 35.16ZM450.253 36.18C448.078 36.18 446.803 34.605 446.803 32.13C446.803 29.655 448.078 28.08 450.253 28.08C451.783 28.08 452.698 28.83 453.148 29.895L452.143 30.405C451.858 29.61 451.198 29.145 450.253 29.145C448.828 29.145 448.093 30.12 448.093 31.47V32.79C448.093 34.14 448.828 35.115 450.253 35.115C451.228 35.115 451.933 34.65 452.353 33.765L453.223 34.35C452.728 35.46 451.723 36.18 450.253 36.18ZM457.739 36.18C455.639 36.18 454.259 34.59 454.259 32.13C454.259 29.67 455.639 28.08 457.739 28.08C459.809 28.08 461.084 29.67 461.084 31.86V32.43H455.519V32.79C455.519 34.125 456.374 35.13 457.814 35.13C458.789 35.13 459.539 34.65 459.944 33.795L460.799 34.41C460.304 35.46 459.194 36.18 457.739 36.18ZM457.739 29.085C456.434 29.085 455.519 30.075 455.519 31.425V31.53H459.794V31.365C459.794 30 458.969 29.085 457.739 29.085Z" fill="#1E1E1E"/>
<circle cx="420" cy="90" r="47.5" fill="#ECF5FF" stroke="#1465FE"/>
<circle cx="447.5" cy="89.5" r="3" fill="#1465FE" stroke="#1465FE" stroke-dasharray="2 2"/>
<path d="M394 69.5C394 71.433 392.433 73 390.5 73C388.567 73 387 71.433 387 69.5C387 67.567 388.567 66 390.5 66C392.433 66 394 67.567 394 69.5Z" fill="#24A147"/>
<path d="M403 62.5C403 64.433 401.433 66 399.5 66C397.567 66 396 64.433 396 62.5C396 60.567 397.567 59 399.5 59C401.433 59 403 60.567 403 62.5Z" fill="#24A147"/>
<path d="M404 73.5C404 75.433 402.433 77 400.5 77C398.567 77 397 75.433 397 73.5C397 71.567 398.567 70 400.5 70C402.433 70 404 71.567 404 73.5Z" fill="#24A147"/>
<path d="M416 121.5C416 123.433 414.433 125 412.5 125C410.567 125 409 123.433 409 121.5C409 119.567 410.567 118 412.5 118C414.433 118 416 119.567 416 121.5Z" fill="#D02670"/>
<path d="M442 80.5C442 82.433 440.433 84 438.5 84C436.567 84 435 82.433 435 80.5C435 78.567 436.567 77 438.5 77C440.433 77 442 78.567 442 80.5Z" fill="#8B3FFC"/>
<path d="M460 87.5C460 89.433 458.433 91 456.5 91C454.567 91 453 89.433 453 87.5C453 85.567 454.567 84 456.5 84C458.433 84 460 85.567 460 87.5Z" fill="#8B3FFC"/>
<path d="M400 110.5C400 112.433 398.433 114 396.5 114C394.567 114 393 112.433 393 110.5C393 108.567 394.567 107 396.5 107C398.433 107 400 108.567 400 110.5Z" fill="#D02670"/>
<path d="M451 89.5C451 91.433 449.433 93 447.5 93C445.567 93 444 91.433 444 89.5C444 87.567 445.567 86 447.5 86C449.433 86 451 87.567 451 89.5Z" fill="#8B3FFC"/>
<path d="M456 77.5C456 79.433 454.433 81 452.5 81C450.567 81 449 79.433 449 77.5C449 75.567 450.567 74 452.5 74C454.433 74 456 75.567 456 77.5Z" fill="#8B3FFC"/>
<path d="M413 110.5C413 112.433 411.433 114 409.5 114C407.567 114 406 112.433 406 110.5C406 108.567 407.567 107 409.5 107C411.433 107 413 108.567 413 110.5Z" fill="#D02670"/>
<path d="M403 121.5C403 123.433 401.433 125 399.5 125C397.567 125 396 123.433 396 121.5C396 119.567 397.567 118 399.5 118C401.433 118 403 119.567 403 121.5Z" fill="#D02670"/>
<path d="M450.5 111C450.5 112.933 448.933 114.5 447 114.5C445.067 114.5 443.5 112.933 443.5 111C443.5 109.067 445.067 107.5 447 107.5C448.933 107.5 450.5 109.067 450.5 111Z" fill="#009D9A"/>
<path d="M447 120C447 121.933 445.433 123.5 443.5 123.5C441.567 123.5 440 121.933 440 120C440 118.067 441.567 116.5 443.5 116.5C445.433 116.5 447 118.067 447 120Z" fill="#009D9A"/>
<path d="M480 90L475 87.1132V92.8868L480 90ZM468 90.5H475.5V89.5H468V90.5Z" fill="#1465FE"/>
<path d="M216.5 161.36V18.6404L359.5 54.3904V125.61L216.5 161.36Z" fill="#ECF5FF" stroke="#1465FE"/>
<path d="M253.251 86H246.501L248.601 75.53H255.171L254.826 77.21H250.161L249.621 79.895H253.761L253.431 81.575H249.276L248.736 84.32H253.581L253.251 86ZM258.972 89L259.918 84.215H259.843C259.213 85.49 258.493 86.18 257.293 86.18C255.838 86.18 255.118 85.025 255.118 83.375C255.118 80.345 256.633 77.99 258.808 77.99C259.858 77.99 260.653 78.605 260.788 79.505H260.863L261.133 78.17H262.948L260.788 89H258.972ZM258.118 84.665C258.703 84.665 259.168 84.335 259.513 83.93C259.903 83.495 260.173 82.91 260.308 82.265L260.578 80.93C260.743 80.135 260.173 79.505 259.213 79.505C258.163 79.505 257.533 80.165 257.278 81.44L257.068 82.52C257.023 82.745 256.978 83.105 256.978 83.345C256.978 84.14 257.383 84.665 258.118 84.665ZM265.064 78.17H266.879L265.934 82.88C265.874 83.165 265.844 83.45 265.844 83.675C265.844 84.275 266.099 84.635 266.699 84.635C267.224 84.635 267.644 84.365 268.004 83.945C268.409 83.48 268.694 82.895 268.814 82.295L269.639 78.17H271.454L270.179 84.515H271.124L270.839 86H269.549C268.829 86 268.334 85.595 268.334 84.905C268.334 84.755 268.364 84.575 268.379 84.455L268.424 84.26H268.334C267.764 85.475 267.014 86.18 265.859 86.18C264.629 86.18 263.969 85.415 263.969 84.11C263.969 83.75 264.014 83.405 264.089 83.015L265.064 78.17ZM274.966 77.03C274.306 77.03 274.021 76.745 274.021 76.325C274.021 76.175 274.051 75.965 274.096 75.755C274.216 75.26 274.501 74.825 275.356 74.825C276.016 74.825 276.301 75.11 276.301 75.53C276.301 75.68 276.271 75.89 276.226 76.1C276.106 76.595 275.821 77.03 274.966 77.03ZM274.996 86H273.736C272.971 86 272.491 85.55 272.491 84.875C272.491 84.755 272.506 84.65 272.536 84.5L273.796 78.17H275.611L274.351 84.515H275.296L274.996 86ZM280.086 86H277.881L276.846 78.17H278.646L278.991 81.38L279.246 84.35H279.336L280.686 81.38L282.276 78.17H284.226L280.086 86ZM291.263 86H289.973C289.253 86 288.743 85.595 288.743 84.92C288.743 84.755 288.788 84.545 288.803 84.455L288.848 84.215H288.773C288.143 85.49 287.423 86.18 286.223 86.18C284.768 86.18 284.048 85.04 284.048 83.375C284.048 80.345 285.563 77.99 287.738 77.99C288.788 77.99 289.583 78.605 289.718 79.505H289.793L290.063 78.17H291.878L290.603 84.515H291.548L291.263 86ZM287.048 84.665C287.633 84.665 288.098 84.335 288.443 83.93C288.833 83.495 289.103 82.91 289.238 82.265L289.508 80.93C289.673 80.135 289.103 79.505 288.143 79.505C287.093 79.505 286.463 80.165 286.208 81.44L285.998 82.52C285.953 82.745 285.908 83.105 285.908 83.345C285.908 84.14 286.313 84.665 287.048 84.665ZM294.442 86H292.627L294.202 78.17H296.017L295.657 79.97H295.747C296.107 79.145 296.857 78.17 298.087 78.17H298.492L298.117 79.955H297.592C296.242 79.955 295.537 80.51 295.297 81.725L294.442 86ZM301.143 77.03C300.483 77.03 300.198 76.745 300.198 76.325C300.198 76.175 300.228 75.965 300.273 75.755C300.393 75.26 300.678 74.825 301.533 74.825C302.193 74.825 302.478 75.11 302.478 75.53C302.478 75.68 302.448 75.89 302.403 76.1C302.283 76.595 301.998 77.03 301.143 77.03ZM301.173 86H299.913C299.148 86 298.668 85.55 298.668 84.875C298.668 84.755 298.683 84.65 298.713 84.5L299.973 78.17H301.788L300.528 84.515H301.473L301.173 86ZM310.013 86H308.723C308.003 86 307.493 85.595 307.493 84.92C307.493 84.755 307.538 84.545 307.553 84.455L307.598 84.215H307.523C306.893 85.49 306.173 86.18 304.973 86.18C303.518 86.18 302.798 85.04 302.798 83.375C302.798 80.345 304.313 77.99 306.488 77.99C307.538 77.99 308.333 78.605 308.468 79.505H308.543L308.813 78.17H310.628L309.353 84.515H310.298L310.013 86ZM305.798 84.665C306.383 84.665 306.848 84.335 307.193 83.93C307.583 83.495 307.853 82.91 307.988 82.265L308.258 80.93C308.423 80.135 307.853 79.505 306.893 79.505C305.843 79.505 305.213 80.165 304.958 81.44L304.748 82.52C304.703 82.745 304.658 83.105 304.658 83.345C304.658 84.14 305.063 84.665 305.798 84.665ZM313.192 86H311.377L312.952 78.17H314.767L314.422 79.91H314.497C315.082 78.68 315.847 77.99 317.047 77.99C318.292 77.99 318.967 78.755 318.967 80.06C318.967 80.405 318.907 80.735 318.832 81.14L318.157 84.515H319.027L318.727 86H317.467C316.747 86 316.297 85.61 316.297 84.935C316.297 84.785 316.312 84.65 316.342 84.515L316.987 81.29C317.047 81.005 317.077 80.735 317.077 80.465C317.077 79.895 316.822 79.535 316.162 79.535C315.637 79.535 315.202 79.805 314.842 80.225C314.452 80.675 314.137 81.26 314.017 81.875L313.192 86ZM323.663 86H322.313C321.218 86 320.693 85.535 320.693 84.665C320.693 84.515 320.708 84.29 320.753 84.065L321.638 79.655H320.513L320.798 78.17H321.353C321.968 78.17 322.103 77.93 322.208 77.39L322.478 76.025H324.173L323.753 78.17H325.328L325.028 79.655H323.453L322.478 84.515H323.963L323.663 86ZM262.161 106.18C260.061 106.18 258.681 104.59 258.681 102.13C258.681 99.67 260.061 98.08 262.161 98.08C264.231 98.08 265.506 99.67 265.506 101.86V102.43H259.941V102.79C259.941 104.125 260.796 105.13 262.236 105.13C263.211 105.13 263.961 104.65 264.366 103.795L265.221 104.41C264.726 105.46 263.616 106.18 262.161 106.18ZM262.161 99.085C260.856 99.085 259.941 100.075 259.941 101.425V101.53H264.216V101.365C264.216 100 263.391 99.085 262.161 99.085ZM268.683 106H267.483V98.26H268.683V99.52H268.743C269.118 98.65 269.778 98.08 270.933 98.08C272.523 98.08 273.528 99.16 273.528 101.035V106H272.328V101.245C272.328 99.865 271.728 99.16 270.573 99.16C269.613 99.16 268.683 99.64 268.683 100.63V106ZM278.888 106.18C276.713 106.18 275.438 104.605 275.438 102.13C275.438 99.655 276.713 98.08 278.888 98.08C280.418 98.08 281.333 98.83 281.783 99.895L280.778 100.405C280.493 99.61 279.833 99.145 278.888 99.145C277.463 99.145 276.728 100.12 276.728 101.47V102.79C276.728 104.14 277.463 105.115 278.888 105.115C279.863 105.115 280.568 104.65 280.988 103.765L281.858 104.35C281.363 105.46 280.358 106.18 278.888 106.18ZM286.389 106.18C284.319 106.18 282.894 104.59 282.894 102.13C282.894 99.67 284.319 98.08 286.389 98.08C288.459 98.08 289.884 99.67 289.884 102.13C289.884 104.59 288.459 106.18 286.389 106.18ZM286.389 105.115C287.679 105.115 288.594 104.32 288.594 102.685V101.575C288.594 99.94 287.679 99.145 286.389 99.145C285.099 99.145 284.184 99.94 284.184 101.575V102.685C284.184 104.32 285.099 105.115 286.389 105.115ZM296.808 106V104.74H296.748C296.283 105.7 295.548 106.18 294.483 106.18C292.548 106.18 291.333 104.605 291.333 102.13C291.333 99.655 292.548 98.08 294.483 98.08C295.548 98.08 296.343 98.545 296.748 99.52H296.808V94.9H298.008V106H296.808ZM294.813 105.1C295.908 105.1 296.808 104.53 296.808 103.525V100.645C296.808 99.79 295.908 99.16 294.813 99.16C293.463 99.16 292.623 100.09 292.623 101.47V102.79C292.623 104.17 293.463 105.1 294.813 105.1ZM303.469 106.18C301.369 106.18 299.989 104.59 299.989 102.13C299.989 99.67 301.369 98.08 303.469 98.08C305.539 98.08 306.814 99.67 306.814 101.86V102.43H301.249V102.79C301.249 104.125 302.104 105.13 303.544 105.13C304.519 105.13 305.269 104.65 305.674 103.795L306.529 104.41C306.034 105.46 304.924 106.18 303.469 106.18ZM303.469 99.085C302.164 99.085 301.249 100.075 301.249 101.425V101.53H305.524V101.365C305.524 100 304.699 99.085 303.469 99.085ZM309.992 106H308.792V98.26H309.992V99.685H310.067C310.337 98.95 311.042 98.26 312.302 98.26H312.767V99.46H312.062C310.772 99.46 309.992 100.015 309.992 100.75V106Z" fill="#1465FE"/>
<path d="M372 90L367 87.1132V92.8868L372 90ZM360 90.5H367.5V89.5H360V90.5Z" fill="#1465FE"/>
<rect x="144.5" y="66" width="47" height="47" fill="#ECF5FF" stroke="#1465FE"/>
<circle cx="168" cy="88.5166" r="3.5" fill="#1465FE"/>
<circle cx="168" cy="88.5166" r="3.5" stroke="#1465FE"/>
<circle cx="168" cy="88.5166" r="3.5" fill="#1465FE"/>
<circle cx="168" cy="88.5166" r="3.5" stroke="#1465FE"/>
<circle cx="168" cy="76.5166" r="3.5" fill="#1465FE"/>
<circle cx="168" cy="76.5166" r="3.5" stroke="#1465FE"/>
<circle cx="168" cy="102.517" r="3.5" fill="#1465FE"/>
<circle cx="168" cy="102.517" r="3.5" stroke="#1465FE"/>
<circle cx="180" cy="96.5166" r="3.5" fill="#1465FE"/>
<circle cx="180" cy="96.5166" r="3.5" stroke="#1465FE"/>
<circle cx="180" cy="82.5166" r="3.5" fill="#1465FE"/>
<circle cx="180" cy="82.5166" r="3.5" stroke="#1465FE"/>
<circle cx="156" cy="96.5166" r="3.5" fill="#1465FE"/>
<circle cx="156" cy="96.5166" r="3.5" stroke="#1465FE"/>
<circle cx="156" cy="82.5166" r="3.5" fill="#1465FE"/>
<circle cx="156" cy="82.5166" r="3.5" stroke="#1465FE"/>
<path d="M180.504 82.1362L168.504 75.1362C168.351 75.047 168.177 75 168 75C167.823 75 167.649 75.047 167.496 75.1362L155.496 82.1362C155.345 82.2243 155.22 82.3504 155.133 82.502C155.046 82.6535 155 82.8252 155 83V97C155 97.1748 155.046 97.3465 155.133 97.498C155.22 97.6496 155.345 97.7757 155.496 97.8638L167.496 104.864C167.649 104.953 167.823 105 168 105C168.177 105 168.351 104.953 168.504 104.864L180.504 97.8638C180.655 97.7757 180.78 97.6496 180.867 97.498C180.954 97.3465 181 97.1748 181 97V83C181 82.8252 180.954 82.6535 180.867 82.502C180.78 82.3504 180.655 82.2243 180.504 82.1362ZM168 77.1577L178.016 83L168 88.8423L157.984 83L168 77.1577ZM157 84.7412L167 90.5742V102.259L157 96.4258V84.7412ZM169 102.259V90.5742L179 84.7412V96.4258L169 102.259Z" fill="#1465FE"/>
<path d="M147.5 63H194.5V110" stroke="#1465FE"/>
<path d="M150.5 60H197.5V107" stroke="#1465FE"/>
<path d="M216 90L211 87.1132V92.8868L216 90ZM192 90.5H211.5V89.5H192V90.5Z" fill="#1465FE"/>
<mask id="path-41-inside-1_305_2" fill="white">
<path d="M0 6H107.583V30H0V6Z"/>
</mask>
<path d="M0 6H107.583V30H0V6Z" fill="#F6F2FF"/>
<path d="M0 6V5H-4V6H0ZM107.583 6H108.583V5H107.583V6ZM107.583 30V31H108.583V30H107.583ZM0 30H-4V31H0V30ZM0 7H107.583V5H0V7ZM106.583 6V30H108.583V6H106.583ZM107.583 29H0V31H107.583V29ZM4 30V6H-4V30H4Z" fill="#8B3FFC" mask="url(#path-41-inside-1_305_2)"/>
<path d="M10.23 24V13.53H12.465L15.15 18.645H15.21L17.865 13.53H20.01V24H18.135V16.485H18.075L17.265 18.15L15.12 22.11L12.975 18.15L12.165 16.485H12.105V24H10.23ZM26.5861 24.18C23.8411 24.18 22.0261 22.305 22.0261 18.765C22.0261 15.225 23.8411 13.35 26.5861 13.35C29.3461 13.35 31.1461 15.225 31.1461 18.765C31.1461 22.305 29.3461 24.18 26.5861 24.18ZM26.5861 22.425C28.0861 22.425 29.0461 21.36 29.0461 19.575V17.955C29.0461 16.17 28.0861 15.105 26.5861 15.105C25.0861 15.105 24.1261 16.17 24.1261 17.955V19.575C24.1261 21.36 25.0861 22.425 26.5861 22.425ZM35.1348 24H33.1548V13.53H39.8898V15.285H35.1348V17.82H39.2748V19.575H35.1348V24ZM43.7443 24.18C42.2593 24.18 41.2843 23.64 40.5043 22.74L41.6743 21.6C42.2443 22.26 42.9343 22.665 43.8193 22.665C44.7343 22.665 45.1243 22.32 45.1243 21.765C45.1243 21.315 44.8543 21.03 44.1643 20.94L43.3843 20.835C41.7043 20.625 40.7743 19.89 40.7743 18.465C40.7743 16.95 41.9593 15.99 43.7443 15.99C45.2743 15.99 46.0543 16.44 46.8043 17.22L45.6793 18.345C45.2293 17.865 44.5693 17.505 43.8043 17.505C42.9793 17.505 42.6193 17.835 42.6193 18.315C42.6193 18.84 42.9043 19.08 43.6393 19.2L44.4343 19.305C46.1443 19.545 46.9693 20.31 46.9693 21.615C46.9693 23.13 45.6943 24.18 43.7443 24.18Z" fill="#1E1E1E"/>
<mask id="path-44-inside-2_305_2" fill="white">
<path d="M0 54H107.583V78H0V54Z"/>
</mask>
<path d="M0 54H107.583V78H0V54Z" fill="#DFFBE5"/>
<path d="M0 54V53H-4V54H0ZM107.583 54H108.583V53H107.583V54ZM107.583 78V79H108.583V78H107.583ZM0 78H-4V79H0V78ZM0 55H107.583V53H0V55ZM106.583 54V78H108.583V54H106.583ZM107.583 77H0V79H107.583V77ZM4 78V54H-4V78H4Z" fill="#24A147" mask="url(#path-44-inside-2_305_2)"/>
<path d="M10.23 72V61.53H12.465L15.15 66.645H15.21L17.865 61.53H20.01V72H18.135V64.485H18.075L17.265 66.15L15.12 70.11L12.975 66.15L12.165 64.485H12.105V72H10.23ZM25.4611 72.18C23.2261 72.18 21.8311 70.59 21.8311 68.07C21.8311 65.565 23.2261 63.99 25.4611 63.99C27.7111 63.99 29.1061 65.565 29.1061 68.07C29.1061 70.59 27.7111 72.18 25.4611 72.18ZM25.4611 70.635C26.4661 70.635 27.0961 69.99 27.0961 68.805V67.35C27.0961 66.18 26.4661 65.535 25.4611 65.535C24.4711 65.535 23.8411 66.18 23.8411 67.35V68.805C23.8411 69.99 24.4711 70.635 25.4611 70.635ZM33.7632 72H32.7282C31.4232 72 30.8082 71.31 30.8082 70.11V60.9H32.7282V70.47H33.7632V72ZM38.3824 72.18C36.0724 72.18 34.6924 70.575 34.6924 68.07C34.6924 65.595 36.0274 63.99 38.3224 63.99C40.7674 63.99 41.8924 65.79 41.8924 67.935V68.565H36.6874V68.76C36.6874 69.885 37.3324 70.65 38.5924 70.65C39.5374 70.65 40.1074 70.2 40.5874 69.585L41.6224 70.74C40.9774 71.625 39.8374 72.18 38.3824 72.18ZM38.3524 65.43C37.3474 65.43 36.6874 66.18 36.6874 67.26V67.38H39.8974V67.245C39.8974 66.165 39.3424 65.43 38.3524 65.43ZM46.6717 72.18C44.3617 72.18 43.0567 70.59 43.0567 68.07C43.0567 65.565 44.3617 63.99 46.6717 63.99C48.2467 63.99 49.2817 64.74 49.7467 65.97L48.1717 66.675C47.9917 66.015 47.4967 65.535 46.6717 65.535C45.6067 65.535 45.0667 66.285 45.0667 67.38V68.805C45.0667 69.9 45.6067 70.635 46.6717 70.635C47.5867 70.635 48.0367 70.11 48.3217 69.405L49.7917 70.11C49.2817 71.49 48.1867 72.18 46.6717 72.18ZM55.9521 72V70.695H55.8771C55.6071 71.475 54.9771 72.18 53.6871 72.18C52.0821 72.18 51.1821 71.07 51.1821 69.12V64.17H53.1021V68.925C53.1021 70.005 53.5071 70.59 54.4221 70.59C55.1871 70.59 55.9521 70.185 55.9521 69.345V64.17H57.8721V72H55.9521ZM63.0455 72H62.0105C60.7055 72 60.0905 71.31 60.0905 70.11V60.9H62.0105V70.47H63.0455V72ZM67.6646 72.18C65.3546 72.18 63.9746 70.575 63.9746 68.07C63.9746 65.595 65.3096 63.99 67.6046 63.99C70.0496 63.99 71.1746 65.79 71.1746 67.935V68.565H65.9696V68.76C65.9696 69.885 66.6146 70.65 67.8746 70.65C68.8196 70.65 69.3896 70.2 69.8696 69.585L70.9046 70.74C70.2596 71.625 69.1196 72.18 67.6646 72.18ZM67.6346 65.43C66.6296 65.43 65.9696 66.18 65.9696 67.26V67.38H69.1796V67.245C69.1796 66.165 68.6246 65.43 67.6346 65.43ZM75.4289 72.18C73.9439 72.18 72.9689 71.64 72.1889 70.74L73.3589 69.6C73.9289 70.26 74.6189 70.665 75.5039 70.665C76.4189 70.665 76.8089 70.32 76.8089 69.765C76.8089 69.315 76.5389 69.03 75.8489 68.94L75.0689 68.835C73.3889 68.625 72.4589 67.89 72.4589 66.465C72.4589 64.95 73.6439 63.99 75.4289 63.99C76.9589 63.99 77.7389 64.44 78.4889 65.22L77.3639 66.345C76.9139 65.865 76.2539 65.505 75.4889 65.505C74.6639 65.505 74.3039 65.835 74.3039 66.315C74.3039 66.84 74.5889 67.08 75.3239 67.2L76.1189 67.305C77.8289 67.545 78.6539 68.31 78.6539 69.615C78.6539 71.13 77.3789 72.18 75.4289 72.18Z" fill="#1E1E1E"/>
<mask id="path-47-inside-3_305_2" fill="white">
<path d="M0 102H107.583V126H0V102Z"/>
</mask>
<path d="M0 102H107.583V126H0V102Z" fill="#DAFBFA"/>
<path d="M0 102V101H-4V102H0ZM107.583 102H108.583V101H107.583V102ZM107.583 126V127H108.583V126H107.583ZM0 126H-4V127H0V126ZM0 103H107.583V101H0V103ZM106.583 102V126H108.583V102H106.583ZM107.583 125H0V127H107.583V125ZM4 126V102H-4V126H4Z" fill="#009D9A" mask="url(#path-47-inside-3_305_2)"/>
<path d="M17.415 118.245V120H9.57V118.23L14.985 111.285H9.84V109.53H17.265V111.3L11.835 118.245H17.415ZM22.1813 120.18C19.8713 120.18 18.4913 118.575 18.4913 116.07C18.4913 113.595 19.8263 111.99 22.1213 111.99C24.5663 111.99 25.6913 113.79 25.6913 115.935V116.565H20.4863V116.76C20.4863 117.885 21.1313 118.65 22.3913 118.65C23.3363 118.65 23.9063 118.2 24.3863 117.585L25.4213 118.74C24.7763 119.625 23.6363 120.18 22.1813 120.18ZM22.1513 113.43C21.1463 113.43 20.4863 114.18 20.4863 115.26V115.38H23.6963V115.245C23.6963 114.165 23.1413 113.43 22.1513 113.43ZM30.4855 120.18C28.2505 120.18 26.8555 118.59 26.8555 116.07C26.8555 113.565 28.2505 111.99 30.4855 111.99C32.7355 111.99 34.1305 113.565 34.1305 116.07C34.1305 118.59 32.7355 120.18 30.4855 120.18ZM30.4855 118.635C31.4905 118.635 32.1205 117.99 32.1205 116.805V115.35C32.1205 114.18 31.4905 113.535 30.4855 113.535C29.4955 113.535 28.8655 114.18 28.8655 115.35V116.805C28.8655 117.99 29.4955 118.635 30.4855 118.635ZM38.7877 120H37.7527C36.4477 120 35.8327 119.31 35.8327 118.11V108.9H37.7527V118.47H38.7877V120ZM41.2018 111.03C40.4068 111.03 40.0768 110.625 40.0768 110.07V109.77C40.0768 109.215 40.4068 108.81 41.2018 108.81C41.9818 108.81 42.3268 109.215 42.3268 109.77V110.07C42.3268 110.625 41.9818 111.03 41.2018 111.03ZM40.2418 120V112.17H42.1618V120H40.2418ZM46.8323 120C45.5123 120 44.8073 119.28 44.8073 118.005V113.7H43.6523V112.17H44.2523C44.8223 112.17 45.0023 111.9 45.0023 111.36V110.025H46.7273V112.17H48.3323V113.7H46.7273V118.47H48.2123V120H46.8323ZM53.1041 120.18C50.7941 120.18 49.4141 118.575 49.4141 116.07C49.4141 113.595 50.7491 111.99 53.0441 111.99C55.4891 111.99 56.6141 113.79 56.6141 115.935V116.565H51.4091V116.76C51.4091 117.885 52.0541 118.65 53.3141 118.65C54.2591 118.65 54.8291 118.2 55.3091 117.585L56.3441 118.74C55.6991 119.625 54.5591 120.18 53.1041 120.18ZM53.0741 113.43C52.0691 113.43 51.4091 114.18 51.4091 115.26V115.38H54.6191V115.245C54.6191 114.165 54.0641 113.43 53.0741 113.43ZM60.8684 120.18C59.3834 120.18 58.4084 119.64 57.6284 118.74L58.7984 117.6C59.3684 118.26 60.0584 118.665 60.9434 118.665C61.8584 118.665 62.2484 118.32 62.2484 117.765C62.2484 117.315 61.9784 117.03 61.2884 116.94L60.5084 116.835C58.8284 116.625 57.8984 115.89 57.8984 114.465C57.8984 112.95 59.0834 111.99 60.8684 111.99C62.3984 111.99 63.1784 112.44 63.9284 113.22L62.8034 114.345C62.3534 113.865 61.6934 113.505 60.9284 113.505C60.1034 113.505 59.7434 113.835 59.7434 114.315C59.7434 114.84 60.0284 115.08 60.7634 115.2L61.5584 115.305C63.2684 115.545 64.0934 116.31 64.0934 117.615C64.0934 119.13 62.8184 120.18 60.8684 120.18Z" fill="#1E1E1E"/>
<path d="M112.009 162L112.009 161.5L112.009 162ZM120.009 154L120.509 154L120.009 154ZM120.009 97.9998L119.509 97.9998L120.009 97.9998ZM128.009 89.9998L128.009 89.4998L128.009 89.9998ZM144.009 89.9998L139.009 92.8865L139.009 87.113L144.009 89.9998ZM96.0092 161.5L112.009 161.5L112.009 162.5L96.0092 162.5L96.0092 161.5ZM119.509 154L119.509 97.9998L120.509 97.9998L120.509 154L119.509 154ZM128.009 89.4998L139.509 89.4998L139.509 90.4998L128.009 90.4998L128.009 89.4998ZM119.509 97.9998C119.509 93.3054 123.315 89.4998 128.009 89.4998L128.009 90.4998C123.867 90.4998 120.509 93.8576 120.509 97.9998L119.509 97.9998ZM112.009 161.5C116.152 161.5 119.509 158.142 119.509 154L120.509 154C120.509 158.694 116.704 162.5 112.009 162.5L112.009 161.5Z" fill="#6F6F6F"/>
<mask id="path-51-inside-4_305_2" fill="white">
<path d="M0 150H107.583V174H0V150Z"/>
</mask>
<path d="M0 150H107.583V174H0V150Z" fill="#FEF1F7"/>
<path d="M0 150V149H-4V150H0ZM107.583 150H108.583V149H107.583V150ZM107.583 174V175H108.583V174H107.583ZM0 174H-4V175H0V174ZM0 151H107.583V149H0V151ZM106.583 150V174H108.583V150H106.583ZM107.583 173H0V175H107.583V173ZM4 174V150H-4V174H4Z" fill="#D02670" mask="url(#path-51-inside-4_305_2)"/>
<path d="M10.23 168V157.53H15.075C16.8 157.53 17.85 158.595 17.85 160.215C17.85 161.805 16.935 162.405 15.975 162.465V162.555C16.89 162.57 18.24 163.215 18.24 165C18.24 166.68 17.085 168 15.54 168H10.23ZM12.21 163.515V166.32H14.97C15.72 166.32 16.17 165.915 16.17 165.18V164.67C16.17 163.935 15.72 163.515 14.97 163.515H12.21ZM12.21 159.21V161.895H14.655C15.375 161.895 15.795 161.475 15.795 160.785V160.32C15.795 159.615 15.375 159.21 14.655 159.21H12.21ZM24.7363 168V166.695H24.6613C24.3913 167.475 23.7613 168.18 22.4713 168.18C20.8663 168.18 19.9663 167.07 19.9663 165.12V160.17H21.8863V164.925C21.8863 166.005 22.2913 166.59 23.2063 166.59C23.9713 166.59 24.7363 166.185 24.7363 165.345V160.17H26.6563V168H24.7363ZM31.8296 168H30.7946C29.4896 168 28.8746 167.31 28.8746 166.11V156.9H30.7946V166.47H31.8296V168ZM33.2838 168V156.9H35.2038V163.59H35.2788L36.3138 162.18L38.0688 160.17H40.2438L37.5438 163.2L40.5288 168H38.2488L36.2388 164.49L35.2038 165.615V168H33.2838ZM49.4366 168.18C46.6766 168.18 44.9216 166.365 44.9216 162.84C44.9216 159.315 46.6766 157.35 49.4366 157.35C51.3116 157.35 52.5266 158.145 53.2616 159.765L51.5666 160.665C51.2666 159.735 50.6066 159.105 49.4366 159.105C47.9666 159.105 47.0216 160.17 47.0216 161.955V163.605C47.0216 165.405 47.9666 166.425 49.4366 166.425C50.6216 166.425 51.3566 165.705 51.7016 164.76L53.3066 165.705C52.5566 167.265 51.3116 168.18 49.4366 168.18ZM56.7956 168H54.8756V160.17H56.7956V161.79H56.8706C57.0656 160.965 57.6956 160.17 58.9406 160.17H59.3606V161.985H58.7606C57.4706 161.985 56.7956 162.345 56.7956 163.2V168ZM64.3165 164.31L65.6815 160.17H67.4815L64.3315 169.395C63.9415 170.52 63.3865 171 62.0965 171H60.9415V169.47H62.3515L62.7115 168.375L59.9065 160.17H61.8115L63.1765 164.31L63.6865 166.29H63.7765L64.3165 164.31ZM71.1955 168.18C69.7105 168.18 68.7355 167.64 67.9555 166.74L69.1255 165.6C69.6955 166.26 70.3855 166.665 71.2705 166.665C72.1855 166.665 72.5755 166.32 72.5755 165.765C72.5755 165.315 72.3055 165.03 71.6155 164.94L70.8355 164.835C69.1555 164.625 68.2255 163.89 68.2255 162.465C68.2255 160.95 69.4105 159.99 71.1955 159.99C72.7255 159.99 73.5055 160.44 74.2555 161.22L73.1305 162.345C72.6805 161.865 72.0205 161.505 71.2555 161.505C70.4305 161.505 70.0705 161.835 70.0705 162.315C70.0705 162.84 70.3555 163.08 71.0905 163.2L71.8855 163.305C73.5955 163.545 74.4205 164.31 74.4205 165.615C74.4205 167.13 73.1455 168.18 71.1955 168.18ZM78.4437 168C77.1237 168 76.4187 167.28 76.4187 166.005V161.7H75.2637V160.17H75.8637C76.4337 160.17 76.6137 159.9 76.6137 159.36V158.025H78.3387V160.17H79.9437V161.7H78.3387V166.47H79.8237V168H78.4437ZM83.544 168.18C81.954 168.18 81.054 167.265 81.054 165.87C81.054 164.265 82.269 163.47 84.399 163.47H85.734V162.9C85.734 162.03 85.299 161.52 84.279 161.52C83.379 161.52 82.869 161.97 82.494 162.51L81.354 161.49C81.924 160.59 82.839 159.99 84.414 159.99C86.529 159.99 87.654 160.995 87.654 162.78V166.47H88.434V168H87.369C86.544 168 86.034 167.46 85.914 166.65H85.824C85.569 167.655 84.714 168.18 83.544 168.18ZM84.189 166.785C85.044 166.785 85.734 166.395 85.734 165.66V164.625H84.504C83.499 164.625 83.004 164.97 83.004 165.585V165.84C83.004 166.47 83.439 166.785 84.189 166.785ZM92.9429 168H91.9079C90.6029 168 89.9879 167.31 89.9879 166.11V156.9H91.9079V166.47H92.9429V168ZM96.9621 168.18C95.4771 168.18 94.5021 167.64 93.7221 166.74L94.8921 165.6C95.4621 166.26 96.1521 166.665 97.0371 166.665C97.9521 166.665 98.3421 166.32 98.3421 165.765C98.3421 165.315 98.0721 165.03 97.3821 164.94L96.6021 164.835C94.9221 164.625 93.9921 163.89 93.9921 162.465C93.9921 160.95 95.1771 159.99 96.9621 159.99C98.4921 159.99 99.2721 160.44 100.022 161.22L98.8971 162.345C98.4471 161.865 97.7871 161.505 97.0221 161.505C96.1971 161.505 95.8371 161.835 95.8371 162.315C95.8371 162.84 96.1221 163.08 96.8571 163.2L97.6521 163.305C99.3621 163.545 100.187 164.31 100.187 165.615C100.187 167.13 98.9121 168.18 96.9621 168.18Z" fill="#1E1E1E"/>
</svg>
