<svg width="752" height="192" viewBox="0 0 752 192" fill="none" xmlns="http://www.w3.org/2000/svg">
<g clip-path="url(#clip0_309_3)">
<rect width="752" height="192" fill="white"/>
<circle cx="482" cy="97" r="47.5" fill="#ECF5FF" stroke="#1465FE"/>
<circle cx="509.5" cy="96.5" r="3" fill="#1465FE" stroke="#1465FE" stroke-dasharray="2 2"/>
<path d="M456 76.5C456 78.433 454.433 80 452.5 80C450.567 80 449 78.433 449 76.5C449 74.567 450.567 73 452.5 73C454.433 73 456 74.567 456 76.5Z" fill="#24A147"/>
<path d="M465 69.5C465 71.433 463.433 73 461.5 73C459.567 73 458 71.433 458 69.5C458 67.567 459.567 66 461.5 66C463.433 66 465 67.567 465 69.5Z" fill="#24A147"/>
<path d="M466 80.5C466 82.433 464.433 84 462.5 84C460.567 84 459 82.433 459 80.5C459 78.567 460.567 77 462.5 77C464.433 77 466 78.567 466 80.5Z" fill="#24A147"/>
<path d="M478 128.5C478 130.433 476.433 132 474.5 132C472.567 132 471 130.433 471 128.5C471 126.567 472.567 125 474.5 125C476.433 125 478 126.567 478 128.5Z" fill="#D02670"/>
<path d="M504 87.5C504 89.433 502.433 91 500.5 91C498.567 91 497 89.433 497 87.5C497 85.567 498.567 84 500.5 84C502.433 84 504 85.567 504 87.5Z" fill="#8B3FFC"/>
<path d="M522 94.5C522 96.433 520.433 98 518.5 98C516.567 98 515 96.433 515 94.5C515 92.567 516.567 91 518.5 91C520.433 91 522 92.567 522 94.5Z" fill="#8B3FFC"/>
<path d="M462 117.5C462 119.433 460.433 121 458.5 121C456.567 121 455 119.433 455 117.5C455 115.567 456.567 114 458.5 114C460.433 114 462 115.567 462 117.5Z" fill="#D02670"/>
<path d="M513 96.5C513 98.433 511.433 100 509.5 100C507.567 100 506 98.433 506 96.5C506 94.567 507.567 93 509.5 93C511.433 93 513 94.567 513 96.5Z" fill="#8B3FFC"/>
<path d="M518 84.5C518 86.433 516.433 88 514.5 88C512.567 88 511 86.433 511 84.5C511 82.567 512.567 81 514.5 81C516.433 81 518 82.567 518 84.5Z" fill="#8B3FFC"/>
<path d="M475 117.5C475 119.433 473.433 121 471.5 121C469.567 121 468 119.433 468 117.5C468 115.567 469.567 114 471.5 114C473.433 114 475 115.567 475 117.5Z" fill="#D02670"/>
<path d="M465 128.5C465 130.433 463.433 132 461.5 132C459.567 132 458 130.433 458 128.5C458 126.567 459.567 125 461.5 125C463.433 125 465 126.567 465 128.5Z" fill="#D02670"/>
<path d="M512.5 118C512.5 119.933 510.933 121.5 509 121.5C507.067 121.5 505.5 119.933 505.5 118C505.5 116.067 507.067 114.5 509 114.5C510.933 114.5 512.5 116.067 512.5 118Z" fill="#009D9A"/>
<path d="M509 127C509 128.933 507.433 130.5 505.5 130.5C503.567 130.5 502 128.933 502 127C502 125.067 503.567 123.5 505.5 123.5C507.433 123.5 509 125.067 509 127Z" fill="#009D9A"/>
<path d="M421.5 132.61L278.5 168.36V25.6404L421.5 61.3904V132.61Z" fill="#ECF5FF" stroke="#1465FE"/>
<path d="M315.251 93H308.501L310.601 82.53H317.171L316.826 84.21H312.161L311.621 86.895H315.761L315.431 88.575H311.276L310.736 91.32H315.581L315.251 93ZM320.972 96L321.918 91.215H321.843C321.213 92.49 320.493 93.18 319.293 93.18C317.838 93.18 317.118 92.025 317.118 90.375C317.118 87.345 318.633 84.99 320.808 84.99C321.858 84.99 322.653 85.605 322.788 86.505H322.863L323.133 85.17H324.948L322.788 96H320.972ZM320.118 91.665C320.703 91.665 321.168 91.335 321.513 90.93C321.903 90.495 322.173 89.91 322.308 89.265L322.578 87.93C322.743 87.135 322.173 86.505 321.213 86.505C320.163 86.505 319.533 87.165 319.278 88.44L319.068 89.52C319.023 89.745 318.978 90.105 318.978 90.345C318.978 91.14 319.383 91.665 320.118 91.665ZM327.064 85.17H328.879L327.934 89.88C327.874 90.165 327.844 90.45 327.844 90.675C327.844 91.275 328.099 91.635 328.699 91.635C329.224 91.635 329.644 91.365 330.004 90.945C330.409 90.48 330.694 89.895 330.814 89.295L331.639 85.17H333.454L332.179 91.515H333.124L332.839 93H331.549C330.829 93 330.334 92.595 330.334 91.905C330.334 91.755 330.364 91.575 330.379 91.455L330.424 91.26H330.334C329.764 92.475 329.014 93.18 327.859 93.18C326.629 93.18 325.969 92.415 325.969 91.11C325.969 90.75 326.014 90.405 326.089 90.015L327.064 85.17ZM336.966 84.03C336.306 84.03 336.021 83.745 336.021 83.325C336.021 83.175 336.051 82.965 336.096 82.755C336.216 82.26 336.501 81.825 337.356 81.825C338.016 81.825 338.301 82.11 338.301 82.53C338.301 82.68 338.271 82.89 338.226 83.1C338.106 83.595 337.821 84.03 336.966 84.03ZM336.996 93H335.736C334.971 93 334.491 92.55 334.491 91.875C334.491 91.755 334.506 91.65 334.536 91.5L335.796 85.17H337.611L336.351 91.515H337.296L336.996 93ZM342.086 93H339.881L338.846 85.17H340.646L340.991 88.38L341.246 91.35H341.336L342.686 88.38L344.276 85.17H346.226L342.086 93ZM353.263 93H351.973C351.253 93 350.743 92.595 350.743 91.92C350.743 91.755 350.788 91.545 350.803 91.455L350.848 91.215H350.773C350.143 92.49 349.423 93.18 348.223 93.18C346.768 93.18 346.048 92.04 346.048 90.375C346.048 87.345 347.563 84.99 349.738 84.99C350.788 84.99 351.583 85.605 351.718 86.505H351.793L352.063 85.17H353.878L352.603 91.515H353.548L353.263 93ZM349.048 91.665C349.633 91.665 350.098 91.335 350.443 90.93C350.833 90.495 351.103 89.91 351.238 89.265L351.508 87.93C351.673 87.135 351.103 86.505 350.143 86.505C349.093 86.505 348.463 87.165 348.208 88.44L347.998 89.52C347.953 89.745 347.908 90.105 347.908 90.345C347.908 91.14 348.313 91.665 349.048 91.665ZM356.442 93H354.627L356.202 85.17H358.017L357.657 86.97H357.747C358.107 86.145 358.857 85.17 360.087 85.17H360.492L360.117 86.955H359.592C358.242 86.955 357.537 87.51 357.297 88.725L356.442 93ZM363.143 84.03C362.483 84.03 362.198 83.745 362.198 83.325C362.198 83.175 362.228 82.965 362.273 82.755C362.393 82.26 362.678 81.825 363.533 81.825C364.193 81.825 364.478 82.11 364.478 82.53C364.478 82.68 364.448 82.89 364.403 83.1C364.283 83.595 363.998 84.03 363.143 84.03ZM363.173 93H361.913C361.148 93 360.668 92.55 360.668 91.875C360.668 91.755 360.683 91.65 360.713 91.5L361.973 85.17H363.788L362.528 91.515H363.473L363.173 93ZM372.013 93H370.723C370.003 93 369.493 92.595 369.493 91.92C369.493 91.755 369.538 91.545 369.553 91.455L369.598 91.215H369.523C368.893 92.49 368.173 93.18 366.973 93.18C365.518 93.18 364.798 92.04 364.798 90.375C364.798 87.345 366.313 84.99 368.488 84.99C369.538 84.99 370.333 85.605 370.468 86.505H370.543L370.813 85.17H372.628L371.353 91.515H372.298L372.013 93ZM367.798 91.665C368.383 91.665 368.848 91.335 369.193 90.93C369.583 90.495 369.853 89.91 369.988 89.265L370.258 87.93C370.423 87.135 369.853 86.505 368.893 86.505C367.843 86.505 367.213 87.165 366.958 88.44L366.748 89.52C366.703 89.745 366.658 90.105 366.658 90.345C366.658 91.14 367.063 91.665 367.798 91.665ZM375.192 93H373.377L374.952 85.17H376.767L376.422 86.91H376.497C377.082 85.68 377.847 84.99 379.047 84.99C380.292 84.99 380.967 85.755 380.967 87.06C380.967 87.405 380.907 87.735 380.832 88.14L380.157 91.515H381.027L380.727 93H379.467C378.747 93 378.297 92.61 378.297 91.935C378.297 91.785 378.312 91.65 378.342 91.515L378.987 88.29C379.047 88.005 379.077 87.735 379.077 87.465C379.077 86.895 378.822 86.535 378.162 86.535C377.637 86.535 377.202 86.805 376.842 87.225C376.452 87.675 376.137 88.26 376.017 88.875L375.192 93ZM385.663 93H384.313C383.218 93 382.693 92.535 382.693 91.665C382.693 91.515 382.708 91.29 382.753 91.065L383.638 86.655H382.513L382.798 85.17H383.353C383.968 85.17 384.103 84.93 384.208 84.39L384.478 83.025H386.173L385.753 85.17H387.328L387.028 86.655H385.453L384.478 91.515H385.963L385.663 93ZM324.161 113.18C322.061 113.18 320.681 111.59 320.681 109.13C320.681 106.67 322.061 105.08 324.161 105.08C326.231 105.08 327.506 106.67 327.506 108.86V109.43H321.941V109.79C321.941 111.125 322.796 112.13 324.236 112.13C325.211 112.13 325.961 111.65 326.366 110.795L327.221 111.41C326.726 112.46 325.616 113.18 324.161 113.18ZM324.161 106.085C322.856 106.085 321.941 107.075 321.941 108.425V108.53H326.216V108.365C326.216 107 325.391 106.085 324.161 106.085ZM330.683 113H329.483V105.26H330.683V106.52H330.743C331.118 105.65 331.778 105.08 332.933 105.08C334.523 105.08 335.528 106.16 335.528 108.035V113H334.328V108.245C334.328 106.865 333.728 106.16 332.573 106.16C331.613 106.16 330.683 106.64 330.683 107.63V113ZM340.888 113.18C338.713 113.18 337.438 111.605 337.438 109.13C337.438 106.655 338.713 105.08 340.888 105.08C342.418 105.08 343.333 105.83 343.783 106.895L342.778 107.405C342.493 106.61 341.833 106.145 340.888 106.145C339.463 106.145 338.728 107.12 338.728 108.47V109.79C338.728 111.14 339.463 112.115 340.888 112.115C341.863 112.115 342.568 111.65 342.988 110.765L343.858 111.35C343.363 112.46 342.358 113.18 340.888 113.18ZM348.389 113.18C346.319 113.18 344.894 111.59 344.894 109.13C344.894 106.67 346.319 105.08 348.389 105.08C350.459 105.08 351.884 106.67 351.884 109.13C351.884 111.59 350.459 113.18 348.389 113.18ZM348.389 112.115C349.679 112.115 350.594 111.32 350.594 109.685V108.575C350.594 106.94 349.679 106.145 348.389 106.145C347.099 106.145 346.184 106.94 346.184 108.575V109.685C346.184 111.32 347.099 112.115 348.389 112.115ZM358.808 113V111.74H358.748C358.283 112.7 357.548 113.18 356.483 113.18C354.548 113.18 353.333 111.605 353.333 109.13C353.333 106.655 354.548 105.08 356.483 105.08C357.548 105.08 358.343 105.545 358.748 106.52H358.808V101.9H360.008V113H358.808ZM356.813 112.1C357.908 112.1 358.808 111.53 358.808 110.525V107.645C358.808 106.79 357.908 106.16 356.813 106.16C355.463 106.16 354.623 107.09 354.623 108.47V109.79C354.623 111.17 355.463 112.1 356.813 112.1ZM365.469 113.18C363.369 113.18 361.989 111.59 361.989 109.13C361.989 106.67 363.369 105.08 365.469 105.08C367.539 105.08 368.814 106.67 368.814 108.86V109.43H363.249V109.79C363.249 111.125 364.104 112.13 365.544 112.13C366.519 112.13 367.269 111.65 367.674 110.795L368.529 111.41C368.034 112.46 366.924 113.18 365.469 113.18ZM365.469 106.085C364.164 106.085 363.249 107.075 363.249 108.425V108.53H367.524V108.365C367.524 107 366.699 106.085 365.469 106.085ZM371.992 113H370.792V105.26H371.992V106.685H372.067C372.337 105.95 373.042 105.26 374.302 105.26H374.767V106.46H374.062C372.772 106.46 371.992 107.015 371.992 107.75V113Z" fill="#1465FE"/>
<path d="M434 97L429 94.1132V99.8868L434 97ZM422 97.5H429.5V96.5H422V97.5Z" fill="#1465FE"/>
<path d="M158 121H174C178.418 121 182 117.418 182 113V105C182 100.582 185.582 97 190 97H204" stroke="#6F6F6F"/>
<path d="M158 73H174C178.418 73 182 76.5817 182 81V89C182 93.4183 185.582 97 190 97H204" stroke="#6F6F6F"/>
<path d="M174 25L174 25.5H174L174 25ZM182 33L182.5 33L182 33ZM182 89L181.5 89L181.5 89L182 89ZM190 97L190 97.5L190 97ZM206 97L201 94.1132L201 99.8867L206 97ZM158 25.5L174 25.5L174 24.5L158 24.5L158 25.5ZM181.5 33L181.5 89L182.5 89L182.5 33L181.5 33ZM190 97.5L201.5 97.5L201.5 96.5L190 96.5L190 97.5ZM181.5 89C181.5 93.6944 185.306 97.5 190 97.5L190 96.5C185.858 96.5 182.5 93.1421 182.5 89L181.5 89ZM174 25.5C178.142 25.5 181.5 28.8578 181.5 33L182.5 33C182.5 28.3056 178.694 24.5 174 24.5L174 25.5Z" fill="#6F6F6F"/>
<mask id="path-10-inside-1_309_3" fill="white">
<path d="M4 13H158.533V37H4V13Z"/>
</mask>
<path d="M4 13H158.533V37H4V13Z" fill="#F6F2FF"/>
<path d="M4 13V12H0V13H4ZM158.533 13H159.533V12H158.533V13ZM158.533 37V38H159.533V37H158.533ZM4 37H0V38H4V37ZM4 14H158.533V12H4V14ZM157.533 13V37H159.533V13H157.533ZM158.533 36H4V38H158.533V36ZM8 37V13H0V37H8Z" fill="#8B3FFC" mask="url(#path-10-inside-1_309_3)"/>
<path d="M16.5216 31.18C13.7766 31.18 11.9616 29.305 11.9616 25.765C11.9616 22.225 13.7766 20.35 16.5216 20.35C19.2816 20.35 21.0816 22.225 21.0816 25.765C21.0816 29.305 19.2816 31.18 16.5216 31.18ZM16.5216 29.425C18.0216 29.425 18.9816 28.36 18.9816 26.575V24.955C18.9816 23.17 18.0216 22.105 16.5216 22.105C15.0216 22.105 14.0616 23.17 14.0616 24.955V26.575C14.0616 28.36 15.0216 29.425 16.5216 29.425ZM24.8904 31H22.9704V23.17H24.8904V24.79H24.9654C25.1604 23.965 25.7904 23.17 27.0354 23.17H27.4554V24.985H26.8554C25.5654 24.985 24.8904 25.345 24.8904 26.2V31ZM35.675 31.66C35.675 33.295 34.565 34.18 31.565 34.18C28.925 34.18 27.92 33.49 27.92 32.335C27.92 31.465 28.445 30.97 29.315 30.835V30.67C28.67 30.505 28.31 29.995 28.31 29.365C28.31 28.555 29 28.15 29.75 27.985V27.925C28.805 27.49 28.325 26.68 28.325 25.645C28.325 24.055 29.45 22.99 31.565 22.99C32.045 22.99 32.54 23.05 32.93 23.185V22.93C32.93 22.165 33.32 21.79 34.04 21.79H35.255V23.26H33.59V23.47C34.4 23.92 34.805 24.685 34.805 25.645C34.805 27.22 33.695 28.27 31.565 28.27C31.115 28.27 30.71 28.225 30.365 28.135C30.065 28.27 29.81 28.495 29.81 28.84C29.81 29.23 30.14 29.425 30.83 29.425H32.93C34.85 29.425 35.675 30.25 35.675 31.66ZM33.875 31.885C33.875 31.39 33.515 31.09 32.54 31.09H29.87C29.585 31.3 29.465 31.585 29.465 31.9C29.465 32.5 29.915 32.86 31.115 32.86H32.075C33.32 32.86 33.875 32.545 33.875 31.885ZM31.565 26.965C32.48 26.965 32.975 26.545 32.975 25.765V25.51C32.975 24.715 32.48 24.31 31.565 24.31C30.65 24.31 30.155 24.715 30.155 25.51V25.765C30.155 26.545 30.65 26.965 31.565 26.965ZM38.6895 31.18C37.0995 31.18 36.1995 30.265 36.1995 28.87C36.1995 27.265 37.4145 26.47 39.5445 26.47H40.8795V25.9C40.8795 25.03 40.4445 24.52 39.4245 24.52C38.5245 24.52 38.0145 24.97 37.6395 25.51L36.4995 24.49C37.0695 23.59 37.9845 22.99 39.5595 22.99C41.6745 22.99 42.7995 23.995 42.7995 25.78V29.47H43.5795V31H42.5145C41.6895 31 41.1795 30.46 41.0595 29.65H40.9695C40.7145 30.655 39.8595 31.18 38.6895 31.18ZM39.3345 29.785C40.1895 29.785 40.8795 29.395 40.8795 28.66V27.625H39.6495C38.6445 27.625 38.1495 27.97 38.1495 28.585V28.84C38.1495 29.47 38.5845 29.785 39.3345 29.785ZM47.0534 31H45.1334V23.17H47.0534V24.475H47.1284C47.4434 23.635 48.1034 22.99 49.3184 22.99C50.9234 22.99 51.8234 24.1 51.8234 26.05V31H49.9034V26.245C49.9034 25.135 49.5284 24.565 48.6134 24.565C47.8184 24.565 47.0534 24.985 47.0534 25.825V31ZM54.9118 22.03C54.1168 22.03 53.7868 21.625 53.7868 21.07V20.77C53.7868 20.215 54.1168 19.81 54.9118 19.81C55.6918 19.81 56.0368 20.215 56.0368 20.77V21.07C56.0368 21.625 55.6918 22.03 54.9118 22.03ZM53.9518 31V23.17H55.8718V31H53.9518ZM61.1873 31.18C58.8773 31.18 57.5723 29.59 57.5723 27.07C57.5723 24.565 58.8773 22.99 61.1873 22.99C62.7623 22.99 63.7973 23.74 64.2623 24.97L62.6873 25.675C62.5073 25.015 62.0123 24.535 61.1873 24.535C60.1223 24.535 59.5823 25.285 59.5823 26.38V27.805C59.5823 28.9 60.1223 29.635 61.1873 29.635C62.1023 29.635 62.5523 29.11 62.8373 28.405L64.3073 29.11C63.7973 30.49 62.7023 31.18 61.1873 31.18ZM71.2527 31H69.3327V23.17H71.2527V24.475H71.3277C71.6277 23.65 72.2577 22.99 73.4277 22.99C74.4927 22.99 75.3177 23.515 75.6927 24.565H75.7227C76.0077 23.695 76.8777 22.99 78.1227 22.99C79.6527 22.99 80.5227 24.1 80.5227 26.05V31H78.6027V26.245C78.6027 25.12 78.1977 24.565 77.3427 24.565C76.5927 24.565 75.8877 24.985 75.8877 25.825V31H73.9677V26.245C73.9677 25.12 73.5627 24.565 72.7077 24.565C71.9727 24.565 71.2527 24.985 71.2527 25.825V31ZM85.7531 31.18C83.5181 31.18 82.1231 29.59 82.1231 27.07C82.1231 24.565 83.5181 22.99 85.7531 22.99C88.0031 22.99 89.3981 24.565 89.3981 27.07C89.3981 29.59 88.0031 31.18 85.7531 31.18ZM85.7531 29.635C86.7581 29.635 87.3881 28.99 87.3881 27.805V26.35C87.3881 25.18 86.7581 24.535 85.7531 24.535C84.7631 24.535 84.1331 25.18 84.1331 26.35V27.805C84.1331 28.99 84.7631 29.635 85.7531 29.635ZM94.0552 31H93.0202C91.7152 31 91.1002 30.31 91.1002 29.11V19.9H93.0202V29.47H94.0552V31ZM98.6744 31.18C96.3644 31.18 94.9844 29.575 94.9844 27.07C94.9844 24.595 96.3194 22.99 98.6144 22.99C101.059 22.99 102.184 24.79 102.184 26.935V27.565H96.9794V27.76C96.9794 28.885 97.6244 29.65 98.8844 29.65C99.8294 29.65 100.399 29.2 100.879 28.585L101.914 29.74C101.269 30.625 100.129 31.18 98.6744 31.18ZM98.6444 24.43C97.6394 24.43 96.9794 25.18 96.9794 26.26V26.38H100.189V26.245C100.189 25.165 99.6344 24.43 98.6444 24.43ZM106.964 31.18C104.654 31.18 103.349 29.59 103.349 27.07C103.349 24.565 104.654 22.99 106.964 22.99C108.539 22.99 109.574 23.74 110.039 24.97L108.464 25.675C108.284 25.015 107.789 24.535 106.964 24.535C105.899 24.535 105.359 25.285 105.359 26.38V27.805C105.359 28.9 105.899 29.635 106.964 29.635C107.879 29.635 108.329 29.11 108.614 28.405L110.084 29.11C109.574 30.49 108.479 31.18 106.964 31.18ZM116.244 31V29.695H116.169C115.899 30.475 115.269 31.18 113.979 31.18C112.374 31.18 111.474 30.07 111.474 28.12V23.17H113.394V27.925C113.394 29.005 113.799 29.59 114.714 29.59C115.479 29.59 116.244 29.185 116.244 28.345V23.17H118.164V31H116.244ZM123.337 31H122.302C120.997 31 120.382 30.31 120.382 29.11V19.9H122.302V29.47H123.337V31ZM127.957 31.18C125.647 31.18 124.267 29.575 124.267 27.07C124.267 24.595 125.602 22.99 127.897 22.99C130.342 22.99 131.467 24.79 131.467 26.935V27.565H126.262V27.76C126.262 28.885 126.907 29.65 128.167 29.65C129.112 29.65 129.682 29.2 130.162 28.585L131.197 29.74C130.552 30.625 129.412 31.18 127.957 31.18ZM127.927 24.43C126.922 24.43 126.262 25.18 126.262 26.26V26.38H129.472V26.245C129.472 25.165 128.917 24.43 127.927 24.43ZM135.721 31.18C134.236 31.18 133.261 30.64 132.481 29.74L133.651 28.6C134.221 29.26 134.911 29.665 135.796 29.665C136.711 29.665 137.101 29.32 137.101 28.765C137.101 28.315 136.831 28.03 136.141 27.94L135.361 27.835C133.681 27.625 132.751 26.89 132.751 25.465C132.751 23.95 133.936 22.99 135.721 22.99C137.251 22.99 138.031 23.44 138.781 24.22L137.656 25.345C137.206 24.865 136.546 24.505 135.781 24.505C134.956 24.505 134.596 24.835 134.596 25.315C134.596 25.84 134.881 26.08 135.616 26.2L136.411 26.305C138.121 26.545 138.946 27.31 138.946 28.615C138.946 30.13 137.671 31.18 135.721 31.18Z" fill="#1E1E1E"/>
<mask id="path-13-inside-2_309_3" fill="white">
<path d="M4 61H158.533V85H4V61Z"/>
</mask>
<path d="M4 61H158.533V85H4V61Z" fill="#DFFBE5"/>
<path d="M4 61V60H0V61H4ZM158.533 61H159.533V60H158.533V61ZM158.533 85V86H159.533V85H158.533ZM4 85H0V86H4V85ZM4 62H158.533V60H4V62ZM157.533 61V85H159.533V61H157.533ZM158.533 84H4V86H158.533V84ZM8 85V61H0V85H8Z" fill="#24A147" mask="url(#path-13-inside-2_309_3)"/>
<path d="M16.7316 79H11.9766V77.41H13.3566V70.12H11.9766V68.53H16.7316V70.12H15.3366V77.41H16.7316V79ZM20.5544 79H18.6344V71.17H20.5544V72.475H20.6294C20.9444 71.635 21.6044 70.99 22.8194 70.99C24.4244 70.99 25.3244 72.1 25.3244 74.05V79H23.4044V74.245C23.4044 73.135 23.0294 72.565 22.1144 72.565C21.3194 72.565 20.5544 72.985 20.5544 73.825V79ZM30.5578 79.18C28.3228 79.18 26.9278 77.59 26.9278 75.07C26.9278 72.565 28.3228 70.99 30.5578 70.99C32.8078 70.99 34.2028 72.565 34.2028 75.07C34.2028 77.59 32.8078 79.18 30.5578 79.18ZM30.5578 77.635C31.5628 77.635 32.1928 76.99 32.1928 75.805V74.35C32.1928 73.18 31.5628 72.535 30.5578 72.535C29.5678 72.535 28.9378 73.18 28.9378 74.35V75.805C28.9378 76.99 29.5678 77.635 30.5578 77.635ZM37.8249 79H35.9049V71.17H37.8249V72.79H37.8999C38.0949 71.965 38.7249 71.17 39.9699 71.17H40.3899V72.985H39.7899C38.4999 72.985 37.8249 73.345 37.8249 74.2V79ZM48.6096 79.66C48.6096 81.295 47.4996 82.18 44.4996 82.18C41.8596 82.18 40.8546 81.49 40.8546 80.335C40.8546 79.465 41.3796 78.97 42.2496 78.835V78.67C41.6046 78.505 41.2446 77.995 41.2446 77.365C41.2446 76.555 41.9346 76.15 42.6846 75.985V75.925C41.7396 75.49 41.2596 74.68 41.2596 73.645C41.2596 72.055 42.3846 70.99 44.4996 70.99C44.9796 70.99 45.4746 71.05 45.8646 71.185V70.93C45.8646 70.165 46.2546 69.79 46.9746 69.79H48.1896V71.26H46.5246V71.47C47.3346 71.92 47.7396 72.685 47.7396 73.645C47.7396 75.22 46.6296 76.27 44.4996 76.27C44.0496 76.27 43.6446 76.225 43.2996 76.135C42.9996 76.27 42.7446 76.495 42.7446 76.84C42.7446 77.23 43.0746 77.425 43.7646 77.425H45.8646C47.7846 77.425 48.6096 78.25 48.6096 79.66ZM46.8096 79.885C46.8096 79.39 46.4496 79.09 45.4746 79.09H42.8046C42.5196 79.3 42.3996 79.585 42.3996 79.9C42.3996 80.5 42.8496 80.86 44.0496 80.86H45.0096C46.2546 80.86 46.8096 80.545 46.8096 79.885ZM44.4996 74.965C45.4146 74.965 45.9096 74.545 45.9096 73.765V73.51C45.9096 72.715 45.4146 72.31 44.4996 72.31C43.5846 72.31 43.0896 72.715 43.0896 73.51V73.765C43.0896 74.545 43.5846 74.965 44.4996 74.965ZM51.6241 79.18C50.0341 79.18 49.1341 78.265 49.1341 76.87C49.1341 75.265 50.3491 74.47 52.4791 74.47H53.8141V73.9C53.8141 73.03 53.3791 72.52 52.3591 72.52C51.4591 72.52 50.9491 72.97 50.5741 73.51L49.4341 72.49C50.0041 71.59 50.9191 70.99 52.4941 70.99C54.6091 70.99 55.7341 71.995 55.7341 73.78V77.47H56.5141V79H55.4491C54.6241 79 54.1141 78.46 53.9941 77.65H53.9041C53.6491 78.655 52.7941 79.18 51.6241 79.18ZM52.2691 77.785C53.1241 77.785 53.8141 77.395 53.8141 76.66V75.625H52.5841C51.5791 75.625 51.0841 75.97 51.0841 76.585V76.84C51.0841 77.47 51.5191 77.785 52.2691 77.785ZM59.988 79H58.068V71.17H59.988V72.475H60.063C60.378 71.635 61.038 70.99 62.253 70.99C63.858 70.99 64.758 72.1 64.758 74.05V79H62.838V74.245C62.838 73.135 62.463 72.565 61.548 72.565C60.753 72.565 59.988 72.985 59.988 73.825V79ZM67.8464 70.03C67.0514 70.03 66.7214 69.625 66.7214 69.07V68.77C66.7214 68.215 67.0514 67.81 67.8464 67.81C68.6264 67.81 68.9714 68.215 68.9714 68.77V69.07C68.9714 69.625 68.6264 70.03 67.8464 70.03ZM66.8864 79V71.17H68.8064V79H66.8864ZM74.1219 79.18C71.8119 79.18 70.5069 77.59 70.5069 75.07C70.5069 72.565 71.8119 70.99 74.1219 70.99C75.6969 70.99 76.7319 71.74 77.1969 72.97L75.6219 73.675C75.4419 73.015 74.9469 72.535 74.1219 72.535C73.0569 72.535 72.5169 73.285 72.5169 74.38V75.805C72.5169 76.9 73.0569 77.635 74.1219 77.635C75.0369 77.635 75.4869 77.11 75.7719 76.405L77.2419 77.11C76.7319 78.49 75.6369 79.18 74.1219 79.18ZM84.1872 79H82.2672V71.17H84.1872V72.475H84.2622C84.5622 71.65 85.1922 70.99 86.3622 70.99C87.4272 70.99 88.2522 71.515 88.6272 72.565H88.6572C88.9422 71.695 89.8122 70.99 91.0572 70.99C92.5872 70.99 93.4572 72.1 93.4572 74.05V79H91.5372V74.245C91.5372 73.12 91.1322 72.565 90.2772 72.565C89.5272 72.565 88.8222 72.985 88.8222 73.825V79H86.9022V74.245C86.9022 73.12 86.4972 72.565 85.6422 72.565C84.9072 72.565 84.1872 72.985 84.1872 73.825V79ZM98.6877 79.18C96.4527 79.18 95.0577 77.59 95.0577 75.07C95.0577 72.565 96.4527 70.99 98.6877 70.99C100.938 70.99 102.333 72.565 102.333 75.07C102.333 77.59 100.938 79.18 98.6877 79.18ZM98.6877 77.635C99.6927 77.635 100.323 76.99 100.323 75.805V74.35C100.323 73.18 99.6927 72.535 98.6877 72.535C97.6977 72.535 97.0677 73.18 97.0677 74.35V75.805C97.0677 76.99 97.6977 77.635 98.6877 77.635ZM106.99 79H105.955C104.65 79 104.035 78.31 104.035 77.11V67.9H105.955V77.47H106.99V79ZM111.609 79.18C109.299 79.18 107.919 77.575 107.919 75.07C107.919 72.595 109.254 70.99 111.549 70.99C113.994 70.99 115.119 72.79 115.119 74.935V75.565H109.914V75.76C109.914 76.885 110.559 77.65 111.819 77.65C112.764 77.65 113.334 77.2 113.814 76.585L114.849 77.74C114.204 78.625 113.064 79.18 111.609 79.18ZM111.579 72.43C110.574 72.43 109.914 73.18 109.914 74.26V74.38H113.124V74.245C113.124 73.165 112.569 72.43 111.579 72.43ZM119.898 79.18C117.588 79.18 116.283 77.59 116.283 75.07C116.283 72.565 117.588 70.99 119.898 70.99C121.473 70.99 122.508 71.74 122.973 72.97L121.398 73.675C121.218 73.015 120.723 72.535 119.898 72.535C118.833 72.535 118.293 73.285 118.293 74.38V75.805C118.293 76.9 118.833 77.635 119.898 77.635C120.813 77.635 121.263 77.11 121.548 76.405L123.018 77.11C122.508 78.49 121.413 79.18 119.898 79.18ZM129.179 79V77.695H129.104C128.834 78.475 128.204 79.18 126.914 79.18C125.309 79.18 124.409 78.07 124.409 76.12V71.17H126.329V75.925C126.329 77.005 126.734 77.59 127.649 77.59C128.414 77.59 129.179 77.185 129.179 76.345V71.17H131.099V79H129.179ZM136.272 79H135.237C133.932 79 133.317 78.31 133.317 77.11V67.9H135.237V77.47H136.272V79ZM140.891 79.18C138.581 79.18 137.201 77.575 137.201 75.07C137.201 72.595 138.536 70.99 140.831 70.99C143.276 70.99 144.401 72.79 144.401 74.935V75.565H139.196V75.76C139.196 76.885 139.841 77.65 141.101 77.65C142.046 77.65 142.616 77.2 143.096 76.585L144.131 77.74C143.486 78.625 142.346 79.18 140.891 79.18ZM140.861 72.43C139.856 72.43 139.196 73.18 139.196 74.26V74.38H142.406V74.245C142.406 73.165 141.851 72.43 140.861 72.43ZM148.655 79.18C147.17 79.18 146.195 78.64 145.415 77.74L146.585 76.6C147.155 77.26 147.845 77.665 148.73 77.665C149.645 77.665 150.035 77.32 150.035 76.765C150.035 76.315 149.765 76.03 149.075 75.94L148.295 75.835C146.615 75.625 145.685 74.89 145.685 73.465C145.685 71.95 146.87 70.99 148.655 70.99C150.185 70.99 150.965 71.44 151.715 72.22L150.59 73.345C150.14 72.865 149.48 72.505 148.715 72.505C147.89 72.505 147.53 72.835 147.53 73.315C147.53 73.84 147.815 74.08 148.55 74.2L149.345 74.305C151.055 74.545 151.88 75.31 151.88 76.615C151.88 78.13 150.605 79.18 148.655 79.18Z" fill="#1E1E1E"/>
<mask id="path-16-inside-3_309_3" fill="white">
<path d="M4 109H158.533V133H4V109Z"/>
</mask>
<path d="M4 109H158.533V133H4V109Z" fill="#DAFBFA"/>
<path d="M4 109V108H0V109H4ZM158.533 109H159.533V108H158.533V109ZM158.533 133V134H159.533V133H158.533ZM4 133H0V134H4V133ZM4 110H158.533V108H4V110ZM157.533 109V133H159.533V109H157.533ZM158.533 132H4V134H158.533V132ZM8 133V109H0V133H8Z" fill="#009D9A" mask="url(#path-16-inside-3_309_3)"/>
<path d="M16.5216 127.18C13.7766 127.18 11.9616 125.305 11.9616 121.765C11.9616 118.225 13.7766 116.35 16.5216 116.35C19.2816 116.35 21.0816 118.225 21.0816 121.765C21.0816 125.305 19.2816 127.18 16.5216 127.18ZM16.5216 125.425C18.0216 125.425 18.9816 124.36 18.9816 122.575V120.955C18.9816 119.17 18.0216 118.105 16.5216 118.105C15.0216 118.105 14.0616 119.17 14.0616 120.955V122.575C14.0616 124.36 15.0216 125.425 16.5216 125.425ZM24.8904 127H22.9704V119.17H24.8904V120.79H24.9654C25.1604 119.965 25.7904 119.17 27.0354 119.17H27.4554V120.985H26.8554C25.5654 120.985 24.8904 121.345 24.8904 122.2V127ZM35.675 127.66C35.675 129.295 34.565 130.18 31.565 130.18C28.925 130.18 27.92 129.49 27.92 128.335C27.92 127.465 28.445 126.97 29.315 126.835V126.67C28.67 126.505 28.31 125.995 28.31 125.365C28.31 124.555 29 124.15 29.75 123.985V123.925C28.805 123.49 28.325 122.68 28.325 121.645C28.325 120.055 29.45 118.99 31.565 118.99C32.045 118.99 32.54 119.05 32.93 119.185V118.93C32.93 118.165 33.32 117.79 34.04 117.79H35.255V119.26H33.59V119.47C34.4 119.92 34.805 120.685 34.805 121.645C34.805 123.22 33.695 124.27 31.565 124.27C31.115 124.27 30.71 124.225 30.365 124.135C30.065 124.27 29.81 124.495 29.81 124.84C29.81 125.23 30.14 125.425 30.83 125.425H32.93C34.85 125.425 35.675 126.25 35.675 127.66ZM33.875 127.885C33.875 127.39 33.515 127.09 32.54 127.09H29.87C29.585 127.3 29.465 127.585 29.465 127.9C29.465 128.5 29.915 128.86 31.115 128.86H32.075C33.32 128.86 33.875 128.545 33.875 127.885ZM31.565 122.965C32.48 122.965 32.975 122.545 32.975 121.765V121.51C32.975 120.715 32.48 120.31 31.565 120.31C30.65 120.31 30.155 120.715 30.155 121.51V121.765C30.155 122.545 30.65 122.965 31.565 122.965ZM38.6895 127.18C37.0995 127.18 36.1995 126.265 36.1995 124.87C36.1995 123.265 37.4145 122.47 39.5445 122.47H40.8795V121.9C40.8795 121.03 40.4445 120.52 39.4245 120.52C38.5245 120.52 38.0145 120.97 37.6395 121.51L36.4995 120.49C37.0695 119.59 37.9845 118.99 39.5595 118.99C41.6745 118.99 42.7995 119.995 42.7995 121.78V125.47H43.5795V127H42.5145C41.6895 127 41.1795 126.46 41.0595 125.65H40.9695C40.7145 126.655 39.8595 127.18 38.6895 127.18ZM39.3345 125.785C40.1895 125.785 40.8795 125.395 40.8795 124.66V123.625H39.6495C38.6445 123.625 38.1495 123.97 38.1495 124.585V124.84C38.1495 125.47 38.5845 125.785 39.3345 125.785ZM47.0534 127H45.1334V119.17H47.0534V120.475H47.1284C47.4434 119.635 48.1034 118.99 49.3184 118.99C50.9234 118.99 51.8234 120.1 51.8234 122.05V127H49.9034V122.245C49.9034 121.135 49.5284 120.565 48.6134 120.565C47.8184 120.565 47.0534 120.985 47.0534 121.825V127ZM54.9118 118.03C54.1168 118.03 53.7868 117.625 53.7868 117.07V116.77C53.7868 116.215 54.1168 115.81 54.9118 115.81C55.6918 115.81 56.0368 116.215 56.0368 116.77V117.07C56.0368 117.625 55.6918 118.03 54.9118 118.03ZM53.9518 127V119.17H55.8718V127H53.9518ZM61.1873 127.18C58.8773 127.18 57.5723 125.59 57.5723 123.07C57.5723 120.565 58.8773 118.99 61.1873 118.99C62.7623 118.99 63.7973 119.74 64.2623 120.97L62.6873 121.675C62.5073 121.015 62.0123 120.535 61.1873 120.535C60.1223 120.535 59.5823 121.285 59.5823 122.38V123.805C59.5823 124.9 60.1223 125.635 61.1873 125.635C62.1023 125.635 62.5523 125.11 62.8373 124.405L64.3073 125.11C63.7973 126.49 62.7023 127.18 61.1873 127.18ZM72.4227 127.18C70.1127 127.18 68.8077 125.59 68.8077 123.07C68.8077 120.565 70.1127 118.99 72.4227 118.99C73.9977 118.99 75.0327 119.74 75.4977 120.97L73.9227 121.675C73.7427 121.015 73.2477 120.535 72.4227 120.535C71.3577 120.535 70.8177 121.285 70.8177 122.38V123.805C70.8177 124.9 71.3577 125.635 72.4227 125.635C73.3377 125.635 73.7877 125.11 74.0727 124.405L75.5427 125.11C75.0327 126.49 73.9377 127.18 72.4227 127.18ZM78.9431 127H77.0231V119.17H78.9431V120.79H79.0181C79.2131 119.965 79.8431 119.17 81.0881 119.17H81.5081V120.985H80.9081C79.6181 120.985 78.9431 121.345 78.9431 122.2V127ZM86.4639 123.31L87.8289 119.17H89.6289L86.4789 128.395C86.0889 129.52 85.5339 130 84.2439 130H83.0889V128.47H84.4989L84.8589 127.375L82.0539 119.17H83.9589L85.3239 123.31L85.8339 125.29H85.9239L86.4639 123.31ZM93.343 127.18C91.858 127.18 90.883 126.64 90.103 125.74L91.273 124.6C91.843 125.26 92.533 125.665 93.418 125.665C94.333 125.665 94.723 125.32 94.723 124.765C94.723 124.315 94.453 124.03 93.763 123.94L92.983 123.835C91.303 123.625 90.373 122.89 90.373 121.465C90.373 119.95 91.558 118.99 93.343 118.99C94.873 118.99 95.653 119.44 96.403 120.22L95.278 121.345C94.828 120.865 94.168 120.505 93.403 120.505C92.578 120.505 92.218 120.835 92.218 121.315C92.218 121.84 92.503 122.08 93.238 122.2L94.033 122.305C95.743 122.545 96.568 123.31 96.568 124.615C96.568 126.13 95.293 127.18 93.343 127.18ZM100.591 127C99.2711 127 98.5661 126.28 98.5661 125.005V120.7H97.4111V119.17H98.0111C98.5811 119.17 98.7611 118.9 98.7611 118.36V117.025H100.486V119.17H102.091V120.7H100.486V125.47H101.971V127H100.591ZM105.691 127.18C104.101 127.18 103.201 126.265 103.201 124.87C103.201 123.265 104.416 122.47 106.546 122.47H107.881V121.9C107.881 121.03 107.446 120.52 106.426 120.52C105.526 120.52 105.016 120.97 104.641 121.51L103.501 120.49C104.071 119.59 104.986 118.99 106.561 118.99C108.676 118.99 109.801 119.995 109.801 121.78V125.47H110.581V127H109.516C108.691 127 108.181 126.46 108.061 125.65H107.971C107.716 126.655 106.861 127.18 105.691 127.18ZM106.336 125.785C107.191 125.785 107.881 125.395 107.881 124.66V123.625H106.651C105.646 123.625 105.151 123.97 105.151 124.585V124.84C105.151 125.47 105.586 125.785 106.336 125.785ZM115.09 127H114.055C112.75 127 112.135 126.31 112.135 125.11V115.9H114.055V125.47H115.09V127ZM119.11 127.18C117.625 127.18 116.65 126.64 115.87 125.74L117.04 124.6C117.61 125.26 118.3 125.665 119.185 125.665C120.1 125.665 120.49 125.32 120.49 124.765C120.49 124.315 120.22 124.03 119.53 123.94L118.75 123.835C117.07 123.625 116.14 122.89 116.14 121.465C116.14 119.95 117.325 118.99 119.11 118.99C120.64 118.99 121.42 119.44 122.17 120.22L121.045 121.345C120.595 120.865 119.935 120.505 119.17 120.505C118.345 120.505 117.985 120.835 117.985 121.315C117.985 121.84 118.27 122.08 119.005 122.2L119.8 122.305C121.51 122.545 122.335 123.31 122.335 124.615C122.335 126.13 121.06 127.18 119.11 127.18Z" fill="#1E1E1E"/>
<path d="M174.009 169L174.009 168.5H174.009L174.009 169ZM182.009 161L182.509 161L182.009 161ZM182.009 105L181.509 105L181.509 105L182.009 105ZM190.009 96.9998L190.009 96.4998L190.009 96.9998ZM206.009 96.9998L201.009 99.8865L201.009 94.113L206.009 96.9998ZM158.009 168.5L174.009 168.5L174.009 169.5L158.009 169.5L158.009 168.5ZM181.509 161L181.509 105L182.509 105L182.509 161L181.509 161ZM190.009 96.4998L201.509 96.4998L201.509 97.4998L190.009 97.4998L190.009 96.4998ZM181.509 105C181.509 100.305 185.315 96.4998 190.009 96.4998L190.009 97.4998C185.867 97.4998 182.509 100.858 182.509 105L181.509 105ZM174.009 168.5C178.151 168.5 181.509 165.142 181.509 161L182.509 161C182.509 165.694 178.704 169.5 174.009 169.5L174.009 168.5Z" fill="#6F6F6F"/>
<mask id="path-20-inside-4_309_3" fill="white">
<path d="M4 157H158.533V181H4V157Z"/>
</mask>
<path d="M4 157H158.533V181H4V157Z" fill="#FEF1F7"/>
<path d="M4 157V156H0V157H4ZM158.533 157H159.533V156H158.533V157ZM158.533 181V182H159.533V181H158.533ZM4 181H0V182H4V181ZM4 158H158.533V156H4V158ZM157.533 157V181H159.533V157H157.533ZM158.533 180H4V182H158.533V180ZM8 181V157H0V181H8Z" fill="#D02670" mask="url(#path-20-inside-4_309_3)"/>
<path d="M16.7316 175H11.9766V173.41H13.3566V166.12H11.9766V164.53H16.7316V166.12H15.3366V173.41H16.7316V175ZM20.5544 175H18.6344V167.17H20.5544V168.475H20.6294C20.9444 167.635 21.6044 166.99 22.8194 166.99C24.4244 166.99 25.3244 168.1 25.3244 170.05V175H23.4044V170.245C23.4044 169.135 23.0294 168.565 22.1144 168.565C21.3194 168.565 20.5544 168.985 20.5544 169.825V175ZM30.5578 175.18C28.3228 175.18 26.9278 173.59 26.9278 171.07C26.9278 168.565 28.3228 166.99 30.5578 166.99C32.8078 166.99 34.2028 168.565 34.2028 171.07C34.2028 173.59 32.8078 175.18 30.5578 175.18ZM30.5578 173.635C31.5628 173.635 32.1928 172.99 32.1928 171.805V170.35C32.1928 169.18 31.5628 168.535 30.5578 168.535C29.5678 168.535 28.9378 169.18 28.9378 170.35V171.805C28.9378 172.99 29.5678 173.635 30.5578 173.635ZM37.8249 175H35.9049V167.17H37.8249V168.79H37.8999C38.0949 167.965 38.7249 167.17 39.9699 167.17H40.3899V168.985H39.7899C38.4999 168.985 37.8249 169.345 37.8249 170.2V175ZM48.6096 175.66C48.6096 177.295 47.4996 178.18 44.4996 178.18C41.8596 178.18 40.8546 177.49 40.8546 176.335C40.8546 175.465 41.3796 174.97 42.2496 174.835V174.67C41.6046 174.505 41.2446 173.995 41.2446 173.365C41.2446 172.555 41.9346 172.15 42.6846 171.985V171.925C41.7396 171.49 41.2596 170.68 41.2596 169.645C41.2596 168.055 42.3846 166.99 44.4996 166.99C44.9796 166.99 45.4746 167.05 45.8646 167.185V166.93C45.8646 166.165 46.2546 165.79 46.9746 165.79H48.1896V167.26H46.5246V167.47C47.3346 167.92 47.7396 168.685 47.7396 169.645C47.7396 171.22 46.6296 172.27 44.4996 172.27C44.0496 172.27 43.6446 172.225 43.2996 172.135C42.9996 172.27 42.7446 172.495 42.7446 172.84C42.7446 173.23 43.0746 173.425 43.7646 173.425H45.8646C47.7846 173.425 48.6096 174.25 48.6096 175.66ZM46.8096 175.885C46.8096 175.39 46.4496 175.09 45.4746 175.09H42.8046C42.5196 175.3 42.3996 175.585 42.3996 175.9C42.3996 176.5 42.8496 176.86 44.0496 176.86H45.0096C46.2546 176.86 46.8096 176.545 46.8096 175.885ZM44.4996 170.965C45.4146 170.965 45.9096 170.545 45.9096 169.765V169.51C45.9096 168.715 45.4146 168.31 44.4996 168.31C43.5846 168.31 43.0896 168.715 43.0896 169.51V169.765C43.0896 170.545 43.5846 170.965 44.4996 170.965ZM51.6241 175.18C50.0341 175.18 49.1341 174.265 49.1341 172.87C49.1341 171.265 50.3491 170.47 52.4791 170.47H53.8141V169.9C53.8141 169.03 53.3791 168.52 52.3591 168.52C51.4591 168.52 50.9491 168.97 50.5741 169.51L49.4341 168.49C50.0041 167.59 50.9191 166.99 52.4941 166.99C54.6091 166.99 55.7341 167.995 55.7341 169.78V173.47H56.5141V175H55.4491C54.6241 175 54.1141 174.46 53.9941 173.65H53.9041C53.6491 174.655 52.7941 175.18 51.6241 175.18ZM52.2691 173.785C53.1241 173.785 53.8141 173.395 53.8141 172.66V171.625H52.5841C51.5791 171.625 51.0841 171.97 51.0841 172.585V172.84C51.0841 173.47 51.5191 173.785 52.2691 173.785ZM59.988 175H58.068V167.17H59.988V168.475H60.063C60.378 167.635 61.038 166.99 62.253 166.99C63.858 166.99 64.758 168.1 64.758 170.05V175H62.838V170.245C62.838 169.135 62.463 168.565 61.548 168.565C60.753 168.565 59.988 168.985 59.988 169.825V175ZM67.8464 166.03C67.0514 166.03 66.7214 165.625 66.7214 165.07V164.77C66.7214 164.215 67.0514 163.81 67.8464 163.81C68.6264 163.81 68.9714 164.215 68.9714 164.77V165.07C68.9714 165.625 68.6264 166.03 67.8464 166.03ZM66.8864 175V167.17H68.8064V175H66.8864ZM74.1219 175.18C71.8119 175.18 70.5069 173.59 70.5069 171.07C70.5069 168.565 71.8119 166.99 74.1219 166.99C75.6969 166.99 76.7319 167.74 77.1969 168.97L75.6219 169.675C75.4419 169.015 74.9469 168.535 74.1219 168.535C73.0569 168.535 72.5169 169.285 72.5169 170.38V171.805C72.5169 172.9 73.0569 173.635 74.1219 173.635C75.0369 173.635 75.4869 173.11 75.7719 172.405L77.2419 173.11C76.7319 174.49 75.6369 175.18 74.1219 175.18ZM85.3572 175.18C83.0472 175.18 81.7422 173.59 81.7422 171.07C81.7422 168.565 83.0472 166.99 85.3572 166.99C86.9322 166.99 87.9672 167.74 88.4322 168.97L86.8572 169.675C86.6772 169.015 86.1822 168.535 85.3572 168.535C84.2922 168.535 83.7522 169.285 83.7522 170.38V171.805C83.7522 172.9 84.2922 173.635 85.3572 173.635C86.2722 173.635 86.7222 173.11 87.0072 172.405L88.4772 173.11C87.9672 174.49 86.8722 175.18 85.3572 175.18ZM91.8777 175H89.9577V167.17H91.8777V168.79H91.9527C92.1477 167.965 92.7777 167.17 94.0227 167.17H94.4427V168.985H93.8427C92.5527 168.985 91.8777 169.345 91.8777 170.2V175ZM99.3985 171.31L100.764 167.17H102.564L99.4135 176.395C99.0235 177.52 98.4685 178 97.1785 178H96.0235V176.47H97.4335L97.7935 175.375L94.9885 167.17H96.8935L98.2585 171.31L98.7685 173.29H98.8585L99.3985 171.31ZM106.278 175.18C104.793 175.18 103.818 174.64 103.038 173.74L104.208 172.6C104.778 173.26 105.468 173.665 106.353 173.665C107.268 173.665 107.658 173.32 107.658 172.765C107.658 172.315 107.388 172.03 106.698 171.94L105.918 171.835C104.238 171.625 103.308 170.89 103.308 169.465C103.308 167.95 104.493 166.99 106.278 166.99C107.808 166.99 108.588 167.44 109.338 168.22L108.213 169.345C107.763 168.865 107.103 168.505 106.338 168.505C105.513 168.505 105.153 168.835 105.153 169.315C105.153 169.84 105.438 170.08 106.173 170.2L106.968 170.305C108.678 170.545 109.503 171.31 109.503 172.615C109.503 174.13 108.228 175.18 106.278 175.18ZM113.526 175C112.206 175 111.501 174.28 111.501 173.005V168.7H110.346V167.17H110.946C111.516 167.17 111.696 166.9 111.696 166.36V165.025H113.421V167.17H115.026V168.7H113.421V173.47H114.906V175H113.526ZM118.626 175.18C117.036 175.18 116.136 174.265 116.136 172.87C116.136 171.265 117.351 170.47 119.481 170.47H120.816V169.9C120.816 169.03 120.381 168.52 119.361 168.52C118.461 168.52 117.951 168.97 117.576 169.51L116.436 168.49C117.006 167.59 117.921 166.99 119.496 166.99C121.611 166.99 122.736 167.995 122.736 169.78V173.47H123.516V175H122.451C121.626 175 121.116 174.46 120.996 173.65H120.906C120.651 174.655 119.796 175.18 118.626 175.18ZM119.271 173.785C120.126 173.785 120.816 173.395 120.816 172.66V171.625H119.586C118.581 171.625 118.086 171.97 118.086 172.585V172.84C118.086 173.47 118.521 173.785 119.271 173.785ZM128.025 175H126.99C125.685 175 125.07 174.31 125.07 173.11V163.9H126.99V173.47H128.025V175ZM132.044 175.18C130.559 175.18 129.584 174.64 128.804 173.74L129.974 172.6C130.544 173.26 131.234 173.665 132.119 173.665C133.034 173.665 133.424 173.32 133.424 172.765C133.424 172.315 133.154 172.03 132.464 171.94L131.684 171.835C130.004 171.625 129.074 170.89 129.074 169.465C129.074 167.95 130.259 166.99 132.044 166.99C133.574 166.99 134.354 167.44 135.104 168.22L133.979 169.345C133.529 168.865 132.869 168.505 132.104 168.505C131.279 168.505 130.919 168.835 130.919 169.315C130.919 169.84 131.204 170.08 131.939 170.2L132.734 170.305C134.444 170.545 135.269 171.31 135.269 172.615C135.269 174.13 133.994 175.18 132.044 175.18Z" fill="#1E1E1E"/>
<path d="M552.94 100.069L547.94 97.1821V102.956L552.94 100.069ZM528.94 100.569H548.44V99.5688H528.94V100.569Z" fill="#1465FE"/>
<path d="M552.94 93.0688L547.94 90.1821L547.94 95.9556L552.94 93.0688ZM528.94 93.5688L548.44 93.5688L548.44 92.5688L528.94 92.5688L528.94 93.5688Z" fill="#1465FE" fill-opacity="0.5"/>
<path d="M552.94 86.0688L547.94 83.1821L547.94 88.9556L552.94 86.0688ZM528.29 86.5688L548.44 86.5688L548.44 85.5688L528.29 85.5688L528.29 86.5688Z" fill="#1465FE" fill-opacity="0.25"/>
<path d="M679.31 85.2786H674.198V76.9026H679.31V77.7906H675.206V80.5986H679.07V81.4866H675.206V84.3906H679.31V85.2786ZM682.97 85.2786H682.118C681.458 85.2786 681.098 84.8586 681.098 84.2826V76.3986H682.058V84.4386H682.97V85.2786ZM686.696 85.4226C685.016 85.4226 683.912 84.1506 683.912 82.1826C683.912 80.2146 685.016 78.9426 686.696 78.9426C688.352 78.9426 689.372 80.2146 689.372 81.9666V82.4226H684.92V82.7106C684.92 83.7786 685.604 84.5826 686.756 84.5826C687.536 84.5826 688.136 84.1986 688.46 83.5146L689.144 84.0066C688.748 84.8466 687.86 85.4226 686.696 85.4226ZM686.696 79.7466C685.652 79.7466 684.92 80.5386 684.92 81.6186V81.7026H688.34V81.5706C688.34 80.4786 687.68 79.7466 686.696 79.7466ZM693.258 85.4226C691.518 85.4226 690.498 84.1626 690.498 82.1826C690.498 80.2026 691.518 78.9426 693.258 78.9426C694.482 78.9426 695.214 79.5426 695.574 80.3946L694.77 80.8026C694.542 80.1666 694.014 79.7946 693.258 79.7946C692.118 79.7946 691.53 80.5746 691.53 81.6546V82.7106C691.53 83.7906 692.118 84.5706 693.258 84.5706C694.038 84.5706 694.602 84.1986 694.938 83.4906L695.634 83.9586C695.238 84.8466 694.434 85.4226 693.258 85.4226ZM699.557 85.2786H698.357C697.697 85.2786 697.337 84.8586 697.337 84.2586V79.9266H696.317V79.0866H696.893C697.301 79.0866 697.433 78.9426 697.433 78.5226V77.3706H698.297V79.0866H699.653V79.9266H698.297V84.4386H699.557V85.2786ZM702.156 85.2786H701.196V79.0866H702.156V80.2266H702.216C702.432 79.6386 702.996 79.0866 704.004 79.0866H704.376V80.0466H703.812C702.78 80.0466 702.156 80.4906 702.156 81.0786V85.2786ZM707.883 85.4226C706.227 85.4226 705.087 84.1506 705.087 82.1826C705.087 80.2146 706.227 78.9426 707.883 78.9426C709.539 78.9426 710.679 80.2146 710.679 82.1826C710.679 84.1506 709.539 85.4226 707.883 85.4226ZM707.883 84.5706C708.915 84.5706 709.647 83.9346 709.647 82.6266V81.7386C709.647 80.4306 708.915 79.7946 707.883 79.7946C706.851 79.7946 706.119 80.4306 706.119 81.7386V82.6266C706.119 83.9346 706.851 84.5706 707.883 84.5706ZM713.218 85.2786H712.258V79.0866H713.218V80.0946H713.266C713.566 79.3986 714.094 78.9426 715.018 78.9426C716.29 78.9426 717.094 79.8066 717.094 81.3066V85.2786H716.134V81.4746C716.134 80.3706 715.654 79.8066 714.73 79.8066C713.962 79.8066 713.218 80.1906 713.218 80.9826V85.2786ZM719.559 77.6346C719.151 77.6346 718.971 77.4186 718.971 77.0946V76.9386C718.971 76.6146 719.151 76.3986 719.559 76.3986C719.967 76.3986 720.147 76.6146 720.147 76.9386V77.0946C720.147 77.4186 719.967 77.6346 719.559 77.6346ZM719.079 85.2786V79.0866H720.039V85.2786H719.079ZM724.383 85.4226C722.643 85.4226 721.623 84.1626 721.623 82.1826C721.623 80.2026 722.643 78.9426 724.383 78.9426C725.607 78.9426 726.339 79.5426 726.699 80.3946L725.895 80.8026C725.667 80.1666 725.139 79.7946 724.383 79.7946C723.243 79.7946 722.655 80.5746 722.655 81.6546V82.7106C722.655 83.7906 723.243 84.5706 724.383 84.5706C725.163 84.5706 725.727 84.1986 726.063 83.4906L726.759 83.9586C726.363 84.8466 725.559 85.4226 724.383 85.4226Z" fill="#1E1E1E"/>
<path d="M677.813 66.0688V57.6928H680.621C682.709 57.6928 684.053 59.0848 684.053 61.8808C684.053 64.6768 682.709 66.0688 680.621 66.0688H677.813ZM678.821 65.1808H680.621C682.001 65.1808 682.973 64.2208 682.973 62.5648V61.1968C682.973 59.5408 682.001 58.5808 680.621 58.5808H678.821V65.1808ZM688.084 64.0888L689.584 59.8768H690.532L687.76 67.5088C687.484 68.2528 687.232 68.4688 686.32 68.4688H685.828V67.6288H686.8L687.268 66.3088L684.952 59.8768H685.912L687.4 64.0888L687.688 65.0968H687.748L688.084 64.0888ZM692.716 66.0688H691.756V59.8768H692.716V60.8848H692.764C693.064 60.1888 693.592 59.7328 694.516 59.7328C695.788 59.7328 696.592 60.5968 696.592 62.0968V66.0688H695.632V62.2648C695.632 61.1608 695.152 60.5968 694.228 60.5968C693.46 60.5968 692.716 60.9808 692.716 61.7728V66.0688ZM703.617 66.0688H703.077C702.369 66.0688 702.081 65.6368 702.009 65.0608H701.949C701.685 65.8168 701.025 66.2128 700.161 66.2128C698.853 66.2128 698.085 65.4928 698.085 64.3408C698.085 63.1768 698.925 62.5288 700.725 62.5288H701.949V61.9168C701.949 61.0408 701.469 60.5608 700.485 60.5608C699.741 60.5608 699.249 60.9208 698.913 61.4848L698.337 60.9448C698.673 60.2848 699.417 59.7328 700.533 59.7328C702.021 59.7328 702.909 60.5128 702.909 61.8208V65.2288H703.617V66.0688ZM700.317 65.3968C701.265 65.3968 701.949 64.9048 701.949 64.2688V63.2488H700.677C699.585 63.2488 699.093 63.5848 699.093 64.1848V64.4368C699.093 65.0488 699.573 65.3968 700.317 65.3968ZM705.947 66.0688H704.987V59.8768H705.947V60.8848H705.995C706.271 60.2488 706.703 59.7328 707.663 59.7328C708.479 59.7328 709.223 60.1048 709.559 60.9928H709.583C709.811 60.3208 710.411 59.7328 711.467 59.7328C712.727 59.7328 713.483 60.5968 713.483 62.0968V66.0688H712.523V62.2648C712.523 61.1728 712.103 60.5968 711.167 60.5968C710.411 60.5968 709.715 60.9808 709.715 61.7728V66.0688H708.755V62.2648C708.755 61.1608 708.335 60.5968 707.423 60.5968C706.667 60.5968 705.947 60.9808 705.947 61.7728V66.0688ZM715.943 58.4248C715.535 58.4248 715.355 58.2088 715.355 57.8848V57.7288C715.355 57.4048 715.535 57.1888 715.943 57.1888C716.351 57.1888 716.531 57.4048 716.531 57.7288V57.8848C716.531 58.2088 716.351 58.4248 715.943 58.4248ZM715.463 66.0688V59.8768H716.423V66.0688H715.463ZM720.767 66.2128C719.027 66.2128 718.007 64.9528 718.007 62.9728C718.007 60.9928 719.027 59.7328 720.767 59.7328C721.991 59.7328 722.723 60.3328 723.083 61.1848L722.279 61.5928C722.051 60.9568 721.523 60.5848 720.767 60.5848C719.627 60.5848 719.039 61.3648 719.039 62.4448V63.5008C719.039 64.5808 719.627 65.3608 720.767 65.3608C721.547 65.3608 722.111 64.9888 722.447 64.2808L723.143 64.7488C722.747 65.6368 721.943 66.2128 720.767 66.2128Z" fill="#1E1E1E"/>
<path d="M670.641 104.488V96.1123H671.985L674.385 100.624H674.445L676.857 96.1123H678.153V104.488H677.169V97.4323H677.109L676.401 98.8363L674.397 102.484L672.393 98.8363L671.685 97.4323H671.625V104.488H670.641ZM682.612 104.632C680.932 104.632 679.828 103.36 679.828 101.392C679.828 99.4243 680.932 98.1523 682.612 98.1523C684.268 98.1523 685.288 99.4243 685.288 101.176V101.632H680.836V101.92C680.836 102.988 681.52 103.792 682.672 103.792C683.452 103.792 684.052 103.408 684.376 102.724L685.06 103.216C684.664 104.056 683.776 104.632 682.612 104.632ZM682.612 98.9563C681.568 98.9563 680.836 99.7483 680.836 100.828V100.912H684.256V100.78C684.256 99.6883 683.596 98.9563 682.612 98.9563ZM689.174 104.632C687.434 104.632 686.414 103.372 686.414 101.392C686.414 99.4123 687.434 98.1523 689.174 98.1523C690.398 98.1523 691.13 98.7523 691.49 99.6043L690.686 100.012C690.458 99.3763 689.93 99.0043 689.174 99.0043C688.034 99.0043 687.446 99.7843 687.446 100.864V101.92C687.446 103 688.034 103.78 689.174 103.78C689.954 103.78 690.518 103.408 690.854 102.7L691.55 103.168C691.154 104.056 690.35 104.632 689.174 104.632ZM692.905 104.488V95.6083H693.865V99.3043H693.913C694.213 98.6083 694.741 98.1523 695.665 98.1523C696.937 98.1523 697.741 99.0163 697.741 100.516V104.488H696.781V100.684C696.781 99.5803 696.301 99.0163 695.377 99.0163C694.609 99.0163 693.865 99.4003 693.865 100.192V104.488H692.905ZM704.765 104.488H704.225C703.517 104.488 703.229 104.056 703.157 103.48H703.097C702.833 104.236 702.173 104.632 701.309 104.632C700.001 104.632 699.233 103.912 699.233 102.76C699.233 101.596 700.073 100.948 701.873 100.948H703.097V100.336C703.097 99.4603 702.617 98.9803 701.633 98.9803C700.889 98.9803 700.397 99.3403 700.061 99.9043L699.485 99.3643C699.821 98.7043 700.565 98.1523 701.681 98.1523C703.169 98.1523 704.057 98.9323 704.057 100.24V103.648H704.765V104.488ZM701.465 103.816C702.413 103.816 703.097 103.324 703.097 102.688V101.668H701.825C700.733 101.668 700.241 102.004 700.241 102.604V102.856C700.241 103.468 700.721 103.816 701.465 103.816ZM707.095 104.488H706.135V98.2963H707.095V99.3043H707.143C707.443 98.6083 707.971 98.1523 708.895 98.1523C710.167 98.1523 710.971 99.0163 710.971 100.516V104.488H710.011V100.684C710.011 99.5803 709.531 99.0163 708.607 99.0163C707.839 99.0163 707.095 99.4003 707.095 100.192V104.488ZM713.436 96.8443C713.028 96.8443 712.848 96.6283 712.848 96.3043V96.1483C712.848 95.8243 713.028 95.6083 713.436 95.6083C713.844 95.6083 714.024 95.8243 714.024 96.1483V96.3043C714.024 96.6283 713.844 96.8443 713.436 96.8443ZM712.956 104.488V98.2963H713.916V104.488H712.956ZM718.26 104.632C716.52 104.632 715.5 103.372 715.5 101.392C715.5 99.4123 716.52 98.1523 718.26 98.1523C719.484 98.1523 720.216 98.7523 720.576 99.6043L719.772 100.012C719.544 99.3763 719.016 99.0043 718.26 99.0043C717.12 99.0043 716.532 99.7843 716.532 100.864V101.92C716.532 103 717.12 103.78 718.26 103.78C719.04 103.78 719.604 103.408 719.94 102.7L720.636 103.168C720.24 104.056 719.436 104.632 718.26 104.632ZM727.031 104.488H726.491C725.783 104.488 725.495 104.056 725.423 103.48H725.363C725.099 104.236 724.439 104.632 723.575 104.632C722.267 104.632 721.499 103.912 721.499 102.76C721.499 101.596 722.339 100.948 724.139 100.948H725.363V100.336C725.363 99.4603 724.883 98.9803 723.899 98.9803C723.155 98.9803 722.663 99.3403 722.327 99.9043L721.751 99.3643C722.087 98.7043 722.831 98.1523 723.947 98.1523C725.435 98.1523 726.323 98.9323 726.323 100.24V103.648H727.031V104.488ZM723.731 103.816C724.679 103.816 725.363 103.324 725.363 102.688V101.668H724.091C722.999 101.668 722.507 102.004 722.507 102.604V102.856C722.507 103.468 722.987 103.816 723.731 103.816ZM730.273 104.488H729.421C728.761 104.488 728.401 104.068 728.401 103.492V95.6083H729.361V103.648H730.273V104.488Z" fill="#1E1E1E"/>
<path d="M662.907 116.21H660.243V123.698H659.235V116.21H656.571V115.322H662.907V116.21ZM664.194 123.698V114.818H665.154V118.514H665.202C665.502 117.818 666.03 117.362 666.954 117.362C668.226 117.362 669.03 118.226 669.03 119.726V123.698H668.07V119.894C668.07 118.79 667.59 118.226 666.666 118.226C665.898 118.226 665.154 118.61 665.154 119.402V123.698H664.194ZM673.342 123.842C671.662 123.842 670.558 122.57 670.558 120.602C670.558 118.634 671.662 117.362 673.342 117.362C674.998 117.362 676.018 118.634 676.018 120.386V120.842H671.566V121.13C671.566 122.198 672.25 123.002 673.402 123.002C674.182 123.002 674.782 122.618 675.106 121.934L675.79 122.426C675.394 123.266 674.506 123.842 673.342 123.842ZM673.342 118.166C672.298 118.166 671.566 118.958 671.566 120.038V120.122H674.986V119.99C674.986 118.898 674.326 118.166 673.342 118.166ZM678.56 123.698H677.6V117.506H678.56V118.646H678.62C678.836 118.058 679.4 117.506 680.408 117.506H680.78V118.466H680.216C679.184 118.466 678.56 118.91 678.56 119.498V123.698ZM682.966 123.698H682.006V117.506H682.966V118.514H683.014C683.29 117.878 683.722 117.362 684.682 117.362C685.498 117.362 686.242 117.734 686.578 118.622H686.602C686.83 117.95 687.43 117.362 688.486 117.362C689.746 117.362 690.502 118.226 690.502 119.726V123.698H689.542V119.894C689.542 118.802 689.122 118.226 688.186 118.226C687.43 118.226 686.734 118.61 686.734 119.402V123.698H685.774V119.894C685.774 118.79 685.354 118.226 684.442 118.226C683.686 118.226 682.966 118.61 682.966 119.402V123.698ZM694.823 123.842C693.167 123.842 692.027 122.57 692.027 120.602C692.027 118.634 693.167 117.362 694.823 117.362C696.479 117.362 697.619 118.634 697.619 120.602C697.619 122.57 696.479 123.842 694.823 123.842ZM694.823 122.99C695.855 122.99 696.587 122.354 696.587 121.046V120.158C696.587 118.85 695.855 118.214 694.823 118.214C693.791 118.214 693.059 118.85 693.059 120.158V121.046C693.059 122.354 693.791 122.99 694.823 122.99ZM703.158 123.698V122.69H703.11C702.738 123.458 702.15 123.842 701.298 123.842C699.75 123.842 698.778 122.582 698.778 120.602C698.778 118.622 699.75 117.362 701.298 117.362C702.15 117.362 702.786 117.734 703.11 118.514H703.158V114.818H704.118V123.698H703.158ZM701.562 122.978C702.438 122.978 703.158 122.522 703.158 121.718V119.414C703.158 118.73 702.438 118.226 701.562 118.226C700.482 118.226 699.81 118.97 699.81 120.074V121.13C699.81 122.234 700.482 122.978 701.562 122.978ZM708.475 121.718L709.975 117.506H710.923L708.151 125.138C707.875 125.882 707.623 126.098 706.711 126.098H706.219V125.258H707.191L707.659 123.938L705.343 117.506H706.303L707.791 121.718L708.079 122.726H708.139L708.475 121.718ZM713.107 123.698H712.147V117.506H713.107V118.514H713.155C713.455 117.818 713.983 117.362 714.907 117.362C716.179 117.362 716.983 118.226 716.983 119.726V123.698H716.023V119.894C716.023 118.79 715.543 118.226 714.619 118.226C713.851 118.226 713.107 118.61 713.107 119.402V123.698ZM724.007 123.698H723.467C722.759 123.698 722.471 123.266 722.399 122.69H722.339C722.075 123.446 721.415 123.842 720.551 123.842C719.243 123.842 718.475 123.122 718.475 121.97C718.475 120.806 719.315 120.158 721.115 120.158H722.339V119.546C722.339 118.67 721.859 118.19 720.875 118.19C720.131 118.19 719.639 118.55 719.303 119.114L718.727 118.574C719.063 117.914 719.807 117.362 720.923 117.362C722.411 117.362 723.299 118.142 723.299 119.45V122.858H724.007V123.698ZM720.707 123.026C721.655 123.026 722.339 122.534 722.339 121.898V120.878H721.067C719.975 120.878 719.483 121.214 719.483 121.814V122.066C719.483 122.678 719.963 123.026 720.707 123.026ZM726.337 123.698H725.377V117.506H726.337V118.514H726.385C726.661 117.878 727.093 117.362 728.053 117.362C728.869 117.362 729.613 117.734 729.949 118.622H729.973C730.201 117.95 730.801 117.362 731.857 117.362C733.117 117.362 733.873 118.226 733.873 119.726V123.698H732.913V119.894C732.913 118.802 732.493 118.226 731.557 118.226C730.801 118.226 730.105 118.61 730.105 119.402V123.698H729.145V119.894C729.145 118.79 728.725 118.226 727.813 118.226C727.057 118.226 726.337 118.61 726.337 119.402V123.698ZM736.334 116.054C735.926 116.054 735.746 115.838 735.746 115.514V115.358C735.746 115.034 735.926 114.818 736.334 114.818C736.742 114.818 736.922 115.034 736.922 115.358V115.514C736.922 115.838 736.742 116.054 736.334 116.054ZM735.854 123.698V117.506H736.814V123.698H735.854ZM741.158 123.842C739.418 123.842 738.398 122.582 738.398 120.602C738.398 118.622 739.418 117.362 741.158 117.362C742.382 117.362 743.114 117.962 743.474 118.814L742.67 119.222C742.442 118.586 741.914 118.214 741.158 118.214C740.018 118.214 739.43 118.994 739.43 120.074V121.13C739.43 122.21 740.018 122.99 741.158 122.99C741.938 122.99 742.502 122.618 742.838 121.91L743.534 122.378C743.138 123.266 742.334 123.842 741.158 123.842Z" fill="#1E1E1E"/>
<path d="M697.816 143.052C697.312 143.052 697.084 142.764 697.084 142.356V142.2C697.084 141.792 697.312 141.504 697.816 141.504C698.32 141.504 698.548 141.792 698.548 142.2V142.356C698.548 142.764 698.32 143.052 697.816 143.052ZM701.085 143.052C700.581 143.052 700.353 142.764 700.353 142.356V142.2C700.353 141.792 700.581 141.504 701.085 141.504C701.589 141.504 701.817 141.792 701.817 142.2V142.356C701.817 142.764 701.589 143.052 701.085 143.052ZM704.355 143.052C703.851 143.052 703.623 142.764 703.623 142.356V142.2C703.623 141.792 703.851 141.504 704.355 141.504C704.859 141.504 705.087 141.792 705.087 142.2V142.356C705.087 142.764 704.859 143.052 704.355 143.052Z" fill="#1E1E1E"/>
<path d="M448.734 21H442.464V10.53H444.744V18.975H448.734V21ZM457.407 21H456.177C455.382 21 454.812 20.46 454.677 19.62H454.587C454.347 20.64 453.477 21.18 452.277 21.18C450.702 21.18 449.832 20.25 449.832 18.885C449.832 17.22 451.122 16.425 453.207 16.425H454.452V15.93C454.452 15.165 454.077 14.685 453.147 14.685C452.262 14.685 451.797 15.135 451.452 15.615L450.132 14.445C450.762 13.515 451.662 12.945 453.312 12.945C455.532 12.945 456.672 13.965 456.672 15.825V19.275H457.407V21ZM453.102 19.635C453.837 19.635 454.452 19.335 454.452 18.615V17.685H453.372C452.517 17.685 452.067 18 452.067 18.57V18.795C452.067 19.365 452.442 19.635 453.102 19.635ZM461.117 21H458.897V13.125H461.117V14.835H461.192C461.372 13.965 461.972 13.125 463.202 13.125H463.592V15.195H463.037C461.747 15.195 461.117 15.48 461.117 16.395V21ZM472.046 21.57C472.046 23.235 470.996 24.18 467.786 24.18C465.056 24.18 464.051 23.49 464.051 22.35C464.051 21.48 464.606 20.97 465.521 20.85V20.685C464.771 20.55 464.381 19.98 464.381 19.305C464.381 18.48 465.116 18.06 465.851 17.91V17.85C464.906 17.415 464.441 16.62 464.441 15.6C464.441 14.01 465.551 12.945 467.816 12.945C468.311 12.945 468.761 12.99 469.151 13.095V12.795C469.151 11.97 469.586 11.61 470.336 11.61H471.581V13.26H469.841V13.35C470.756 13.785 471.191 14.595 471.191 15.6C471.191 17.175 470.096 18.21 467.816 18.21C467.291 18.21 466.826 18.15 466.421 18.045C466.211 18.18 466.076 18.405 466.076 18.675C466.076 19.05 466.346 19.275 467.021 19.275H469.301C471.221 19.275 472.046 20.115 472.046 21.57ZM469.961 21.87C469.961 21.42 469.631 21.165 468.746 21.165H466.046C465.851 21.36 465.761 21.63 465.761 21.87C465.761 22.44 466.211 22.71 467.411 22.71H468.311C469.511 22.71 469.961 22.44 469.961 21.87ZM467.816 16.755C468.686 16.755 469.121 16.365 469.121 15.675V15.495C469.121 14.805 468.686 14.415 467.816 14.415C466.946 14.415 466.511 14.805 466.511 15.495V15.675C466.511 16.365 466.946 16.755 467.816 16.755ZM476.23 21.18C473.815 21.18 472.45 19.575 472.45 17.055C472.45 14.565 473.77 12.945 476.14 12.945C478.75 12.945 479.8 14.835 479.8 16.965V17.625H474.745V17.745C474.745 18.78 475.3 19.44 476.485 19.44C477.415 19.44 477.925 19.005 478.42 18.495L479.53 19.875C478.825 20.685 477.67 21.18 476.23 21.18ZM476.185 14.58C475.3 14.58 474.745 15.225 474.745 16.2V16.32H477.505V16.185C477.505 15.225 477.07 14.58 476.185 14.58ZM485.729 17.505H481.274V15.345H485.729V17.505ZM490.307 21.18C488.792 21.18 487.802 20.67 486.992 19.77L488.297 18.45C488.852 19.065 489.527 19.455 490.382 19.455C491.252 19.455 491.552 19.17 491.552 18.705C491.552 18.315 491.312 18.12 490.757 18.045L489.902 17.94C488.117 17.715 487.247 16.935 487.247 15.51C487.247 13.995 488.432 12.945 490.307 12.945C491.957 12.945 492.722 13.395 493.517 14.175L492.242 15.48C491.747 14.985 491.087 14.67 490.427 14.67C489.677 14.67 489.377 14.94 489.377 15.33C489.377 15.75 489.557 15.975 490.202 16.065L491.087 16.185C492.797 16.41 493.682 17.19 493.682 18.555C493.682 20.07 492.332 21.18 490.307 21.18ZM498.376 21.18C496.006 21.18 494.701 19.575 494.701 17.055C494.701 14.535 496.006 12.945 498.376 12.945C499.966 12.945 501.061 13.71 501.526 15L499.726 15.78C499.591 15.18 499.156 14.7 498.376 14.7C497.476 14.7 497.011 15.345 497.011 16.335V17.805C497.011 18.795 497.476 19.425 498.376 19.425C499.261 19.425 499.621 18.885 499.846 18.255L501.571 19.005C501.046 20.505 499.921 21.18 498.376 21.18ZM509.995 21H508.765C507.97 21 507.4 20.46 507.265 19.62H507.175C506.935 20.64 506.065 21.18 504.865 21.18C503.29 21.18 502.42 20.25 502.42 18.885C502.42 17.22 503.71 16.425 505.795 16.425H507.04V15.93C507.04 15.165 506.665 14.685 505.735 14.685C504.85 14.685 504.385 15.135 504.04 15.615L502.72 14.445C503.35 13.515 504.25 12.945 505.9 12.945C508.12 12.945 509.26 13.965 509.26 15.825V19.275H509.995V21ZM505.69 19.635C506.425 19.635 507.04 19.335 507.04 18.615V17.685H505.96C505.105 17.685 504.655 18 504.655 18.57V18.795C504.655 19.365 505.03 19.635 505.69 19.635ZM514.695 21H513.69C512.175 21 511.485 20.235 511.485 18.84V9.9H513.705V19.275H514.695V21ZM519.311 21.18C516.896 21.18 515.531 19.575 515.531 17.055C515.531 14.565 516.851 12.945 519.221 12.945C521.831 12.945 522.881 14.835 522.881 16.965V17.625H517.826V17.745C517.826 18.78 518.381 19.44 519.566 19.44C520.496 19.44 521.006 19.005 521.501 18.495L522.611 19.875C521.906 20.685 520.751 21.18 519.311 21.18ZM519.266 14.58C518.381 14.58 517.826 15.225 517.826 16.2V16.32H520.586V16.185C520.586 15.225 520.151 14.58 519.266 14.58ZM443.284 41H442.279C440.764 41 440.074 40.235 440.074 38.84V29.9H442.294V39.275H443.284V41ZM451.665 41H450.435C449.64 41 449.07 40.46 448.935 39.62H448.845C448.605 40.64 447.735 41.18 446.535 41.18C444.96 41.18 444.09 40.25 444.09 38.885C444.09 37.22 445.38 36.425 447.465 36.425H448.71V35.93C448.71 35.165 448.335 34.685 447.405 34.685C446.52 34.685 446.055 35.135 445.71 35.615L444.39 34.445C445.02 33.515 445.92 32.945 447.57 32.945C449.79 32.945 450.93 33.965 450.93 35.825V39.275H451.665V41ZM447.36 39.635C448.095 39.635 448.71 39.335 448.71 38.615V37.685H447.63C446.775 37.685 446.325 38 446.325 38.57V38.795C446.325 39.365 446.7 39.635 447.36 39.635ZM457.147 41H455.827C454.297 41 453.487 40.205 453.487 38.705V34.85H452.377V33.125H452.932C453.532 33.125 453.712 32.825 453.712 32.285V30.995H455.707V33.125H457.267V34.85H455.707V39.275H457.147V41ZM462.035 41.18C459.62 41.18 458.255 39.575 458.255 37.055C458.255 34.565 459.575 32.945 461.945 32.945C464.555 32.945 465.605 34.835 465.605 36.965V37.625H460.55V37.745C460.55 38.78 461.105 39.44 462.29 39.44C463.22 39.44 463.73 39.005 464.225 38.495L465.335 39.875C464.63 40.685 463.475 41.18 462.035 41.18ZM461.99 34.58C461.105 34.58 460.55 35.225 460.55 36.2V36.32H463.31V36.185C463.31 35.225 462.875 34.58 461.99 34.58ZM469.393 41H467.173V33.125H469.393V34.46H469.483C469.768 33.635 470.428 32.945 471.673 32.945C473.278 32.945 474.133 34.085 474.133 36.065V41H471.913V36.245C471.913 35.24 471.628 34.745 470.818 34.745C470.098 34.745 469.393 35.12 469.393 35.9V41ZM480.189 41H478.869C477.339 41 476.529 40.205 476.529 38.705V34.85H475.419V33.125H475.974C476.574 33.125 476.754 32.825 476.754 32.285V30.995H478.749V33.125H480.309V34.85H478.749V39.275H480.189V41ZM488.066 41.18C486.551 41.18 485.561 40.67 484.751 39.77L486.056 38.45C486.611 39.065 487.286 39.455 488.141 39.455C489.011 39.455 489.311 39.17 489.311 38.705C489.311 38.315 489.071 38.12 488.516 38.045L487.661 37.94C485.876 37.715 485.006 36.935 485.006 35.51C485.006 33.995 486.191 32.945 488.066 32.945C489.716 32.945 490.481 33.395 491.276 34.175L490.001 35.48C489.506 34.985 488.846 34.67 488.186 34.67C487.436 34.67 487.136 34.94 487.136 35.33C487.136 35.75 487.316 35.975 487.961 36.065L488.846 36.185C490.556 36.41 491.441 37.19 491.441 38.555C491.441 40.07 490.091 41.18 488.066 41.18ZM492.954 44V33.125H495.174V34.445H495.249C495.474 33.575 496.344 32.945 497.364 32.945C499.359 32.945 500.394 34.385 500.394 37.055C500.394 39.725 499.359 41.18 497.364 41.18C496.344 41.18 495.474 40.535 495.249 39.68H495.174V44H492.954ZM496.629 39.38C497.469 39.38 498.084 38.735 498.084 37.745V36.38C498.084 35.39 497.469 34.745 496.629 34.745C495.789 34.745 495.174 35.18 495.174 35.9V38.225C495.174 38.945 495.789 39.38 496.629 39.38ZM509.13 41H507.9C507.105 41 506.535 40.46 506.4 39.62H506.31C506.07 40.64 505.2 41.18 504 41.18C502.425 41.18 501.555 40.25 501.555 38.885C501.555 37.22 502.845 36.425 504.93 36.425H506.175V35.93C506.175 35.165 505.8 34.685 504.87 34.685C503.985 34.685 503.52 35.135 503.175 35.615L501.855 34.445C502.485 33.515 503.385 32.945 505.035 32.945C507.255 32.945 508.395 33.965 508.395 35.825V39.275H509.13V41ZM504.825 39.635C505.56 39.635 506.175 39.335 506.175 38.615V37.685H505.095C504.24 37.685 503.79 38 503.79 38.57V38.795C503.79 39.365 504.165 39.635 504.825 39.635ZM513.8 41.18C511.43 41.18 510.125 39.575 510.125 37.055C510.125 34.535 511.43 32.945 513.8 32.945C515.39 32.945 516.485 33.71 516.95 35L515.15 35.78C515.015 35.18 514.58 34.7 513.8 34.7C512.9 34.7 512.435 35.345 512.435 36.335V37.805C512.435 38.795 512.9 39.425 513.8 39.425C514.685 39.425 515.045 38.885 515.27 38.255L516.995 39.005C516.47 40.505 515.345 41.18 513.8 41.18ZM521.581 41.18C519.166 41.18 517.801 39.575 517.801 37.055C517.801 34.565 519.121 32.945 521.491 32.945C524.101 32.945 525.151 34.835 525.151 36.965V37.625H520.096V37.745C520.096 38.78 520.651 39.44 521.836 39.44C522.766 39.44 523.276 39.005 523.771 38.495L524.881 39.875C524.176 40.685 523.021 41.18 521.581 41.18ZM521.536 34.58C520.651 34.58 520.096 35.225 520.096 36.2V36.32H522.856V36.185C522.856 35.225 522.421 34.58 521.536 34.58Z" fill="#1E1E1E"/>
<path d="M680.664 21V14.13H680.619L679.854 15.66L677.814 19.365L675.819 15.675L675.024 14.025H674.979V21H672.834V10.53H675.249L677.814 15.435H677.844L680.379 10.53H682.809V21H680.664ZM689.654 21V19.68H689.579C689.309 20.475 688.664 21.18 687.374 21.18C685.769 21.18 684.914 20.055 684.914 18.075V13.125H687.134V17.88C687.134 18.84 687.449 19.38 688.259 19.38C688.949 19.38 689.654 18.99 689.654 18.24V13.125H691.874V21H689.654ZM697.15 21H696.145C694.63 21 693.94 20.235 693.94 18.84V9.9H696.16V19.275H697.15V21ZM702.488 21H701.168C699.638 21 698.828 20.205 698.828 18.705V14.85H697.718V13.125H698.273C698.873 13.125 699.053 12.825 699.053 12.285V10.995H701.048V13.125H702.608V14.85H701.048V19.275H702.488V21ZM705.26 12.285C704.36 12.285 703.97 11.82 703.97 11.19V10.86C703.97 10.23 704.36 9.765 705.26 9.765C706.16 9.765 706.55 10.23 706.55 10.86V11.19C706.55 11.82 706.16 12.285 705.26 12.285ZM704.15 21V13.125H706.37V21H704.15ZM708.442 24V13.125H710.662V14.445H710.737C710.962 13.575 711.832 12.945 712.852 12.945C714.847 12.945 715.882 14.385 715.882 17.055C715.882 19.725 714.847 21.18 712.852 21.18C711.832 21.18 710.962 20.535 710.737 19.68H710.662V24H708.442ZM712.117 19.38C712.957 19.38 713.572 18.735 713.572 17.745V16.38C713.572 15.39 712.957 14.745 712.117 14.745C711.277 14.745 710.662 15.18 710.662 15.9V18.225C710.662 18.945 711.277 19.38 712.117 19.38ZM720.778 21H719.773C718.258 21 717.568 20.235 717.568 18.84V9.9H719.788V19.275H720.778V21ZM725.394 21.18C722.979 21.18 721.614 19.575 721.614 17.055C721.614 14.565 722.934 12.945 725.304 12.945C727.914 12.945 728.964 14.835 728.964 16.965V17.625H723.909V17.745C723.909 18.78 724.464 19.44 725.649 19.44C726.579 19.44 727.089 19.005 727.584 18.495L728.694 19.875C727.989 20.685 726.834 21.18 725.394 21.18ZM725.349 14.58C724.464 14.58 723.909 15.225 723.909 16.2V16.32H726.669V16.185C726.669 15.225 726.234 14.58 725.349 14.58ZM664.987 44V33.125H667.207V34.445H667.282C667.507 33.575 668.377 32.945 669.397 32.945C671.392 32.945 672.427 34.385 672.427 37.055C672.427 39.725 671.392 41.18 669.397 41.18C668.377 41.18 667.507 40.535 667.282 39.68H667.207V44H664.987ZM668.662 39.38C669.502 39.38 670.117 38.735 670.117 37.745V36.38C670.117 35.39 669.502 34.745 668.662 34.745C667.822 34.745 667.207 35.18 667.207 35.9V38.225C667.207 38.945 667.822 39.38 668.662 39.38ZM676.333 41H674.113V33.125H676.333V34.835H676.408C676.588 33.965 677.188 33.125 678.418 33.125H678.808V35.195H678.253C676.963 35.195 676.333 35.48 676.333 36.395V41ZM683.299 41.18C680.989 41.18 679.609 39.59 679.609 37.055C679.609 34.52 680.989 32.945 683.299 32.945C685.609 32.945 686.989 34.52 686.989 37.055C686.989 39.59 685.609 41.18 683.299 41.18ZM683.299 39.425C684.169 39.425 684.679 38.855 684.679 37.865V36.26C684.679 35.27 684.169 34.7 683.299 34.7C682.429 34.7 681.919 35.27 681.919 36.26V37.865C681.919 38.855 682.429 39.425 683.299 39.425ZM688.571 44V33.125H690.791V34.445H690.866C691.091 33.575 691.961 32.945 692.981 32.945C694.976 32.945 696.011 34.385 696.011 37.055C696.011 39.725 694.976 41.18 692.981 41.18C691.961 41.18 691.091 40.535 690.866 39.68H690.791V44H688.571ZM692.246 39.38C693.086 39.38 693.701 38.735 693.701 37.745V36.38C693.701 35.39 693.086 34.745 692.246 34.745C691.406 34.745 690.791 35.18 690.791 35.9V38.225C690.791 38.945 691.406 39.38 692.246 39.38ZM700.982 41.18C698.567 41.18 697.202 39.575 697.202 37.055C697.202 34.565 698.522 32.945 700.892 32.945C703.502 32.945 704.552 34.835 704.552 36.965V37.625H699.497V37.745C699.497 38.78 700.052 39.44 701.237 39.44C702.167 39.44 702.677 39.005 703.172 38.495L704.282 39.875C703.577 40.685 702.422 41.18 700.982 41.18ZM700.937 34.58C700.052 34.58 699.497 35.225 699.497 36.2V36.32H702.257V36.185C702.257 35.225 701.822 34.58 700.937 34.58ZM708.34 41H706.12V33.125H708.34V34.835H708.415C708.595 33.965 709.195 33.125 710.425 33.125H710.815V35.195H710.26C708.97 35.195 708.34 35.48 708.34 36.395V41ZM716.323 41H715.003C713.473 41 712.663 40.205 712.663 38.705V34.85H711.553V33.125H712.108C712.708 33.125 712.888 32.825 712.888 32.285V30.995H714.883V33.125H716.443V34.85H714.883V39.275H716.323V41ZM719.095 32.285C718.195 32.285 717.805 31.82 717.805 31.19V30.86C717.805 30.23 718.195 29.765 719.095 29.765C719.995 29.765 720.385 30.23 720.385 30.86V31.19C720.385 31.82 719.995 32.285 719.095 32.285ZM717.985 41V33.125H720.205V41H717.985ZM725.562 41.18C723.147 41.18 721.782 39.575 721.782 37.055C721.782 34.565 723.102 32.945 725.472 32.945C728.082 32.945 729.132 34.835 729.132 36.965V37.625H724.077V37.745C724.077 38.78 724.632 39.44 725.817 39.44C726.747 39.44 727.257 39.005 727.752 38.495L728.862 39.875C728.157 40.685 727.002 41.18 725.562 41.18ZM725.517 34.58C724.632 34.58 724.077 35.225 724.077 36.2V36.32H726.837V36.185C726.837 35.225 726.402 34.58 725.517 34.58ZM733.37 41.18C731.855 41.18 730.865 40.67 730.055 39.77L731.36 38.45C731.915 39.065 732.59 39.455 733.445 39.455C734.315 39.455 734.615 39.17 734.615 38.705C734.615 38.315 734.375 38.12 733.82 38.045L732.965 37.94C731.18 37.715 730.31 36.935 730.31 35.51C730.31 33.995 731.495 32.945 733.37 32.945C735.02 32.945 735.785 33.395 736.58 34.175L735.305 35.48C734.81 34.985 734.15 34.67 733.49 34.67C732.74 34.67 732.44 34.94 732.44 35.33C732.44 35.75 732.62 35.975 733.265 36.065L734.15 36.185C735.86 36.41 736.745 37.19 736.745 38.555C736.745 40.07 735.395 41.18 733.37 41.18Z" fill="#1E1E1E"/>
<path d="M553.44 76.2466L625.618 58.7731V128.365L553.44 110.891V76.2466Z" fill="#ECF5FF" stroke="#1465FE"/>
<path d="M556.038 72.6377L628.842 55.1377V124.638" stroke="#1465FE" stroke-opacity="0.5"/>
<path d="M559.136 68.6377L631.94 51.1377V120.638" stroke="#1465FE" stroke-opacity="0.25"/>
<path d="M647.94 93.1377L642.94 90.2509V96.0244L647.94 93.1377ZM625.94 93.6377H643.44V92.6377H625.94V93.6377Z" fill="#1465FE"/>
<path d="M647.94 86.1377L642.94 83.2509V89.0244L647.94 86.1377ZM628.94 86.6377H643.44V85.6377H628.94V86.6377Z" fill="#1465FE" fill-opacity="0.5"/>
<path d="M647.94 79.1377L642.94 76.2509L642.94 82.0244L647.94 79.1377ZM631.94 79.6377L643.44 79.6377L643.44 78.6377L631.94 78.6377L631.94 79.6377Z" fill="#1465FE" fill-opacity="0.25"/>
<path d="M566.683 88.512H564.019V96H563.011V88.512H560.347V87.624H566.683V88.512ZM572.166 96H571.626C570.918 96 570.63 95.568 570.558 94.992H570.498C570.234 95.748 569.574 96.144 568.71 96.144C567.402 96.144 566.634 95.424 566.634 94.272C566.634 93.108 567.474 92.46 569.274 92.46H570.498V91.848C570.498 90.972 570.018 90.492 569.034 90.492C568.29 90.492 567.798 90.852 567.462 91.416L566.886 90.876C567.222 90.216 567.966 89.664 569.082 89.664C570.57 89.664 571.458 90.444 571.458 91.752V95.16H572.166V96ZM568.866 95.328C569.814 95.328 570.498 94.836 570.498 94.2V93.18H569.226C568.134 93.18 567.642 93.516 567.642 94.116V94.368C567.642 94.98 568.122 95.328 568.866 95.328ZM575.397 96.144C574.257 96.144 573.501 95.664 572.949 94.932L573.633 94.38C574.113 94.98 574.689 95.328 575.469 95.328C576.285 95.328 576.765 94.956 576.765 94.32C576.765 93.84 576.501 93.468 575.685 93.348L575.193 93.276C574.053 93.108 573.201 92.64 573.201 91.488C573.201 90.264 574.149 89.664 575.409 89.664C576.405 89.664 577.065 90.036 577.569 90.66L576.933 91.236C576.657 90.852 576.129 90.48 575.337 90.48C574.545 90.48 574.125 90.852 574.125 91.44C574.125 92.04 574.545 92.28 575.313 92.4L575.793 92.472C577.161 92.676 577.689 93.276 577.689 94.212C577.689 95.412 576.813 96.144 575.397 96.144ZM579.384 96V87.12H580.344V92.748H580.392L581.34 91.692L583.092 89.808H584.256L581.964 92.256L584.484 96H583.32L581.268 92.844L580.344 93.792V96H579.384ZM588.548 96V87.12H589.508V90.816H589.556C589.856 90.12 590.384 89.664 591.308 89.664C592.58 89.664 593.384 90.528 593.384 92.028V96H592.424V92.196C592.424 91.092 591.944 90.528 591.02 90.528C590.252 90.528 589.508 90.912 589.508 91.704V96H588.548ZM597.697 96.144C596.017 96.144 594.913 94.872 594.913 92.904C594.913 90.936 596.017 89.664 597.697 89.664C599.353 89.664 600.373 90.936 600.373 92.688V93.144H595.921V93.432C595.921 94.5 596.605 95.304 597.757 95.304C598.537 95.304 599.137 94.92 599.461 94.236L600.145 94.728C599.749 95.568 598.861 96.144 597.697 96.144ZM597.697 90.468C596.653 90.468 595.921 91.26 595.921 92.34V92.424H599.341V92.292C599.341 91.2 598.681 90.468 597.697 90.468ZM606.995 96H606.455C605.747 96 605.459 95.568 605.387 94.992H605.327C605.063 95.748 604.403 96.144 603.539 96.144C602.231 96.144 601.463 95.424 601.463 94.272C601.463 93.108 602.303 92.46 604.103 92.46H605.327V91.848C605.327 90.972 604.847 90.492 603.863 90.492C603.119 90.492 602.627 90.852 602.291 91.416L601.715 90.876C602.051 90.216 602.795 89.664 603.911 89.664C605.399 89.664 606.287 90.444 606.287 91.752V95.16H606.995V96ZM603.695 95.328C604.643 95.328 605.327 94.836 605.327 94.2V93.18H604.055C602.963 93.18 602.471 93.516 602.471 94.116V94.368C602.471 94.98 602.951 95.328 603.695 95.328ZM612.325 96V94.992H612.277C611.905 95.76 611.317 96.144 610.465 96.144C608.917 96.144 607.945 94.884 607.945 92.904C607.945 90.924 608.917 89.664 610.465 89.664C611.317 89.664 611.953 90.036 612.277 90.816H612.325V87.12H613.285V96H612.325ZM610.729 95.28C611.605 95.28 612.325 94.824 612.325 94.02V91.716C612.325 91.032 611.605 90.528 610.729 90.528C609.649 90.528 608.977 91.272 608.977 92.376V93.432C608.977 94.536 609.649 95.28 610.729 95.28ZM617.186 96.144C616.046 96.144 615.29 95.664 614.738 94.932L615.422 94.38C615.902 94.98 616.478 95.328 617.258 95.328C618.074 95.328 618.554 94.956 618.554 94.32C618.554 93.84 618.29 93.468 617.474 93.348L616.982 93.276C615.842 93.108 614.99 92.64 614.99 91.488C614.99 90.264 615.938 89.664 617.198 89.664C618.194 89.664 618.854 90.036 619.358 90.66L618.722 91.236C618.446 90.852 617.918 90.48 617.126 90.48C616.334 90.48 615.914 90.852 615.914 91.44C615.914 92.04 616.334 92.28 617.102 92.4L617.582 92.472C618.95 92.676 619.478 93.276 619.478 94.212C619.478 95.412 618.602 96.144 617.186 96.144Z" fill="#1465FE"/>
<rect x="206.586" y="76.25" width="47" height="47" fill="#ECF5FF" stroke="#1465FE"/>
<circle cx="230.086" cy="98.7666" r="3.5" fill="#1465FE"/>
<circle cx="230.086" cy="98.7666" r="3.5" stroke="#1465FE"/>
<circle cx="230.086" cy="98.7666" r="3.5" fill="#1465FE"/>
<circle cx="230.086" cy="98.7666" r="3.5" stroke="#1465FE"/>
<circle cx="230.086" cy="86.7666" r="3.5" fill="#1465FE"/>
<circle cx="230.086" cy="86.7666" r="3.5" stroke="#1465FE"/>
<circle cx="230.086" cy="112.767" r="3.5" fill="#1465FE"/>
<circle cx="230.086" cy="112.767" r="3.5" stroke="#1465FE"/>
<circle cx="242.086" cy="106.767" r="3.5" fill="#1465FE"/>
<circle cx="242.086" cy="106.767" r="3.5" stroke="#1465FE"/>
<circle cx="242.086" cy="92.7666" r="3.5" fill="#1465FE"/>
<circle cx="242.086" cy="92.7666" r="3.5" stroke="#1465FE"/>
<circle cx="218.086" cy="106.767" r="3.5" fill="#1465FE"/>
<circle cx="218.086" cy="106.767" r="3.5" stroke="#1465FE"/>
<circle cx="218.086" cy="92.7666" r="3.5" fill="#1465FE"/>
<circle cx="218.086" cy="92.7666" r="3.5" stroke="#1465FE"/>
<path d="M242.59 92.3862L230.59 85.3862C230.437 85.297 230.263 85.25 230.086 85.25C229.909 85.25 229.735 85.297 229.582 85.3862L217.582 92.3862C217.431 92.4743 217.306 92.6004 217.219 92.752C217.132 92.9035 217.086 93.0752 217.086 93.25V107.25C217.086 107.425 217.132 107.596 217.219 107.748C217.306 107.9 217.431 108.026 217.582 108.114L229.582 115.114C229.735 115.203 229.909 115.25 230.086 115.25C230.263 115.25 230.437 115.203 230.59 115.114L242.59 108.114C242.741 108.026 242.866 107.9 242.953 107.748C243.04 107.596 243.086 107.425 243.086 107.25V93.25C243.086 93.0752 243.04 92.9035 242.953 92.752C242.866 92.6004 242.741 92.4743 242.59 92.3862ZM230.086 87.4077L240.102 93.25L230.086 99.0923L220.07 93.25L230.086 87.4077ZM219.086 94.9912L229.086 100.824V112.509L219.086 106.676V94.9912ZM231.086 112.509V100.824L241.086 94.9912V106.676L231.086 112.509Z" fill="#1465FE"/>
<path d="M209.586 73.25H256.586V120.25" stroke="#1465FE"/>
<path d="M212.586 70.25H259.586V117.25" stroke="#1465FE"/>
<path d="M278.086 97L273.086 94.1132V99.8868L278.086 97ZM254.086 97.5H273.586V96.5H254.086V97.5Z" fill="#1465FE"/>
</g>
<defs>
<clipPath id="clip0_309_3">
<rect width="752" height="192" fill="white"/>
</clipPath>
</defs>
</svg>
